<svg xmlns="http://www.w3.org/2000/svg" xmlns:xlink="http://www.w3.org/1999/xlink" xmlns:lucid="lucid" width="1368.87" height="1412.37"><g transform="translate(4.4338191255740185 -39)" lucid:page-tab-id="0_0"><path d="M16.57 68a8 8 0 0 1 8-8h130.86a8 8 0 0 1 8 8v214.37a8 8 0 0 1-8 8H24.57a8 8 0 0 1-8-8z" stroke="#febed9" stroke-width="2" fill="#fff0fb"/><use xlink:href="#a" transform="matrix(1,0,0,1,28.56618087442598,72) translate(5.049999999999997 74.69999999999999)"/><use xlink:href="#b" transform="matrix(1,0,0,1,28.56618087442598,72) translate(72.95 74.69999999999999)"/><use xlink:href="#c" transform="matrix(1,0,0,1,28.56618087442598,72) translate(87.95 74.69999999999999)"/><use xlink:href="#d" transform="matrix(1,0,0,1,28.56618087442598,72) translate(13.049999999999997 96.3)"/><use xlink:href="#e" transform="matrix(1,0,0,1,28.56618087442598,72) translate(31.999999999999996 96.3)"/><use xlink:href="#f" transform="matrix(1,0,0,1,28.56618087442598,72) translate(6.574999999999996 117.9)"/><use xlink:href="#g" transform="matrix(1,0,0,1,28.56618087442598,72) translate(35.52499999999999 117.9)"/><use xlink:href="#h" transform="matrix(1,0,0,1,28.56618087442598,72) translate(82.42500000000001 117.9)"/><use xlink:href="#i" transform="matrix(1,0,0,1,28.56618087442598,72) translate(29.025 139.5)"/><path d="M236.57 93.19a8 8 0 0 1 8-8.02h284a8 8 0 0 1 8 8v164a8 8 0 0 1-8 8h-284a8 8 0 0 1-8-8z" stroke="#b5d6ff" stroke-width="2" fill="#cfe4ff"/><use xlink:href="#j" transform="matrix(1,0,0,1,241.56618087442598,90.18488745980707) translate(6.324999999999989 34.6)"/><use xlink:href="#k" transform="matrix(1,0,0,1,241.56618087442598,90.18488745980707) translate(86.075 34.6)"/><use xlink:href="#l" transform="matrix(1,0,0,1,241.56618087442598,90.18488745980707) translate(162.925 34.6)"/><use xlink:href="#m" transform="matrix(1,0,0,1,241.56618087442598,90.18488745980707) translate(239.82500000000002 34.6)"/><use xlink:href="#n" transform="matrix(1,0,0,1,241.56618087442598,90.18488745980707) translate(40.55 56.2)"/><use xlink:href="#o" transform="matrix(1,0,0,1,241.56618087442598,90.18488745980707) translate(100.4 56.2)"/><use xlink:href="#p" transform="matrix(1,0,0,1,241.56618087442598,90.18488745980707) translate(170.3 56.2)"/><use xlink:href="#q" transform="matrix(1,0,0,1,241.56618087442598,90.18488745980707) translate(18.849999999999994 77.80000000000001)"/><use xlink:href="#r" transform="matrix(1,0,0,1,241.56618087442598,90.18488745980707) translate(164 77.80000000000001)"/><use xlink:href="#s" transform="matrix(1,0,0,1,241.56618087442598,90.18488745980707) translate(4.650000000000006 99.40000000000002)"/><use xlink:href="#t" transform="matrix(1,0,0,1,241.56618087442598,90.18488745980707) translate(177.79999999999998 99.40000000000002)"/><use xlink:href="#u" transform="matrix(1,0,0,1,241.56618087442598,90.18488745980707) translate(9.149999999999977 121.00000000000001)"/><use xlink:href="#v" transform="matrix(1,0,0,1,241.56618087442598,90.18488745980707) translate(181.7 121.00000000000001)"/><use xlink:href="#w" transform="matrix(1,0,0,1,241.56618087442598,90.18488745980707) translate(62.57499999999999 142.6)"/><use xlink:href="#x" transform="matrix(1,0,0,1,241.56618087442598,90.18488745980707) translate(132.52499999999998 142.6)"/><use xlink:href="#y" transform="matrix(1,0,0,1,241.56618087442598,90.18488745980707) translate(190.52499999999998 142.6)"/><path d="M585.28 68a8 8 0 0 1 8-8H772a8 8 0 0 1 8 8v214.37a8 8 0 0 1-8 8H593.28a8 8 0 0 1-8-8z" stroke="#febed9" stroke-width="2" fill="#fff0fb"/><use xlink:href="#z" transform="matrix(1,0,0,1,597.2784987023358,72) translate(33.074999999999996 42.300000000000004)"/><use xlink:href="#A" transform="matrix(1,0,0,1,597.2784987023358,72) translate(101.975 42.300000000000004)"/><use xlink:href="#B" transform="matrix(1,0,0,1,597.2784987023358,72) translate(5.700000000000017 63.900000000000006)"/><use xlink:href="#C" transform="matrix(1,0,0,1,597.2784987023358,72) translate(41 85.50000000000001)"/><use xlink:href="#D" transform="matrix(1,0,0,1,597.2784987023358,72) translate(110 85.50000000000001)"/><use xlink:href="#E" transform="matrix(1,0,0,1,597.2784987023358,72) translate(3.125 107.10000000000002)"/><use xlink:href="#F" transform="matrix(1,0,0,1,597.2784987023358,72) translate(112.97500000000001 107.10000000000002)"/><use xlink:href="#G" transform="matrix(1,0,0,1,597.2784987023358,72) translate(2.549999999999997 128.70000000000002)"/><use xlink:href="#H" transform="matrix(1,0,0,1,597.2784987023358,72) translate(17.549999999999997 128.70000000000002)"/><use xlink:href="#I" transform="matrix(1,0,0,1,597.2784987023358,72) translate(104.45 128.70000000000002)"/><use xlink:href="#J" transform="matrix(1,0,0,1,597.2784987023358,72) translate(9.525000000000006 150.3)"/><use xlink:href="#d" transform="matrix(1,0,0,1,597.2784987023358,72) translate(63.525000000000006 150.3)"/><use xlink:href="#K" transform="matrix(1,0,0,1,597.2784987023358,72) translate(82.47500000000001 150.3)"/><use xlink:href="#D" transform="matrix(1,0,0,1,597.2784987023358,72) translate(141.475 150.3)"/><use xlink:href="#L" transform="matrix(1,0,0,1,597.2784987023358,72) translate(40.599999999999994 171.9)"/><path d="M828.26 68a8 8 0 0 1 8-8h179.17a8 8 0 0 1 8 8v214.37a8 8 0 0 1-8 8H836.26a8 8 0 0 1-8-8z" stroke="#febed9" stroke-width="2" fill="#fff0fb"/><use xlink:href="#z" transform="matrix(1,0,0,1,840.2556731217142,72) translate(7.674999999999997 63.89999999999999)"/><use xlink:href="#M" transform="matrix(1,0,0,1,840.2556731217142,72) translate(76.575 63.89999999999999)"/><use xlink:href="#N" transform="matrix(1,0,0,1,840.2556731217142,72) translate(117.525 63.89999999999999)"/><use xlink:href="#d" transform="matrix(1,0,0,1,840.2556731217142,72) translate(8.650000000000006 85.5)"/><use xlink:href="#O" transform="matrix(1,0,0,1,840.2556731217142,72) translate(27.600000000000005 85.5)"/><use xlink:href="#P" transform="matrix(1,0,0,1,840.2556731217142,72) translate(128.45000000000002 85.5)"/><use xlink:href="#Q" transform="matrix(1,0,0,1,840.2556731217142,72) translate(149.4 85.5)"/><use xlink:href="#R" transform="matrix(1,0,0,1,840.2556731217142,72) translate(8.574999999999989 107.1)"/><use xlink:href="#S" transform="matrix(1,0,0,1,840.2556731217142,72) translate(104.425 107.1)"/><use xlink:href="#T" transform="matrix(1,0,0,1,840.2556731217142,72) translate(129.425 107.1)"/><use xlink:href="#U" transform="matrix(1,0,0,1,840.2556731217142,72) translate(16.049999999999997 128.70000000000002)"/><use xlink:href="#V" transform="matrix(1,0,0,1,840.2556731217142,72) translate(41.05 128.70000000000002)"/><use xlink:href="#W" transform="matrix(1,0,0,1,840.2556731217142,72) translate(121.95 128.70000000000002)"/><use xlink:href="#X" transform="matrix(1,0,0,1,840.2556731217142,72) translate(135.95 128.70000000000002)"/><use xlink:href="#Y" transform="matrix(1,0,0,1,840.2556731217142,72) translate(28.624999999999993 150.3)"/><use xlink:href="#Z" transform="matrix(1,0,0,1,840.2556731217142,72) translate(66.57499999999999 150.3)"/><path d="M1179.52 75.9a8.3 8.3 0 0 1 11.52 0l97.2 93.73a7.7 7.7 0 0 1 0 11.1l-97.2 93.73a8.3 8.3 0 0 1-11.52 0l-97.2-93.72a7.7 7.7 0 0 1 0-11.1z" stroke="#b5d6ff" stroke-width="2" fill="#cfe4ff"/><use xlink:href="#aa" transform="matrix(1,0,0,1,1081.566180874426,75.35771704180064) translate(8.174999999999997 82)"/><use xlink:href="#ab" transform="matrix(1,0,0,1,1081.566180874426,75.35771704180064) translate(34.175 82)"/><use xlink:href="#ac" transform="matrix(1,0,0,1,1081.566180874426,75.35771704180064) translate(59.175 82)"/><use xlink:href="#ad" transform="matrix(1,0,0,1,1081.566180874426,75.35771704180064) translate(101.075 82)"/><use xlink:href="#W" transform="matrix(1,0,0,1,1081.566180874426,75.35771704180064) translate(116.075 82)"/><use xlink:href="#d" transform="matrix(1,0,0,1,1081.566180874426,75.35771704180064) translate(130.075 82)"/><use xlink:href="#ae" transform="matrix(1,0,0,1,1081.566180874426,75.35771704180064) translate(149.02499999999998 82)"/><use xlink:href="#R" transform="matrix(1,0,0,1,1081.566180874426,75.35771704180064) translate(34.07499999999999 103.6)"/><use xlink:href="#af" transform="matrix(1,0,0,1,1081.566180874426,75.35771704180064) translate(129.925 103.6)"/><use xlink:href="#X" transform="matrix(1,0,0,1,1081.566180874426,75.35771704180064) translate(153.925 103.6)"/><use xlink:href="#ag" transform="matrix(1,0,0,1,1081.566180874426,75.35771704180064) translate(66.075 125.2)"/><path d="M894.85 388a8 8 0 0 1 8-8h130.87a8 8 0 0 1 8 8v144a8 8 0 0 1-8 8H902.85a8 8 0 0 1-8-8z" stroke="#febed9" stroke-width="2" fill="#fff0fb"/><use xlink:href="#ah" transform="matrix(1,0,0,1,906.8492713116393,392) translate(28.1 50)"/><use xlink:href="#Q" transform="matrix(1,0,0,1,906.8492713116393,392) translate(80.95 50)"/><use xlink:href="#ai" transform="matrix(1,0,0,1,906.8492713116393,392) translate(27 71.60000000000001)"/><use xlink:href="#aj" transform="matrix(1,0,0,1,906.8492713116393,392) translate(16.074999999999996 93.20000000000002)"/><path d="M1196.57 388a8 8 0 0 1 8-8h130.86a8 8 0 0 1 8 8v144a8 8 0 0 1-8 8h-130.86a8 8 0 0 1-8-8z" stroke="#febed9" stroke-width="2" fill="#fff0fb"/><use xlink:href="#ah" transform="matrix(1,0,0,1,1208.566180874426,392) translate(0.20000000000000284 60.8)"/><use xlink:href="#d" transform="matrix(1,0,0,1,1208.566180874426,392) translate(53.050000000000004 60.8)"/><use xlink:href="#ae" transform="matrix(1,0,0,1,1208.566180874426,392) translate(72 60.8)"/><use xlink:href="#aj" transform="matrix(1,0,0,1,1208.566180874426,392) translate(16.074999999999996 82.4)"/><path d="M601.85 428a8 8 0 0 1 8-8h198.72a8 8 0 0 1 8 8v134.37a8 8 0 0 1-8 8H609.84a8 8 0 0 1-8-8z" stroke="#febed9" stroke-width="2" fill="#fff0fb"/><use xlink:href="#ak" transform="matrix(1,0,0,1,613.8446795767618,432) translate(4.599999999999994 45.5)"/><use xlink:href="#d" transform="matrix(1,0,0,1,613.8446795767618,432) translate(88.45 45.5)"/><use xlink:href="#K" transform="matrix(1,0,0,1,613.8446795767618,432) translate(107.4 45.5)"/><use xlink:href="#D" transform="matrix(1,0,0,1,613.8446795767618,432) translate(166.4 45.5)"/><use xlink:href="#al" transform="matrix(1,0,0,1,613.8446795767618,432) translate(0.125 67.10000000000001)"/><use xlink:href="#C" transform="matrix(1,0,0,1,613.8446795767618,432) translate(28.075 67.10000000000001)"/><use xlink:href="#W" transform="matrix(1,0,0,1,613.8446795767618,432) translate(97.075 67.10000000000001)"/><use xlink:href="#am" transform="matrix(1,0,0,1,613.8446795767618,432) translate(111.075 67.10000000000001)"/><use xlink:href="#Q" transform="matrix(1,0,0,1,613.8446795767618,432) translate(176.925 67.10000000000001)"/><use xlink:href="#K" transform="matrix(1,0,0,1,613.8446795767618,432) translate(6.099999999999994 88.70000000000002)"/><use xlink:href="#f" transform="matrix(1,0,0,1,613.8446795767618,432) translate(65.1 88.70000000000002)"/><use xlink:href="#aj" transform="matrix(1,0,0,1,613.8446795767618,432) translate(94.05 88.70000000000002)"/><path d="M316.57 423.2a8 8 0 0 1 8-8h210.86a8 8 0 0 1 8 8v143.98a8 8 0 0 1-8 8H324.57a8 8 0 0 1-8-8z" stroke="#febed9" stroke-width="2" fill="#fff0fb"/><use xlink:href="#z" transform="matrix(1,0,0,1,328.56618087442587,427.1848874598071) translate(6.625 17.6)"/><use xlink:href="#M" transform="matrix(1,0,0,1,328.56618087442587,427.1848874598071) translate(75.525 17.6)"/><use xlink:href="#an" transform="matrix(1,0,0,1,328.56618087442587,427.1848874598071) translate(116.47500000000001 17.6)"/><use xlink:href="#Q" transform="matrix(1,0,0,1,328.56618087442587,427.1848874598071) translate(182.425 17.6)"/><use xlink:href="#O" transform="matrix(1,0,0,1,328.56618087442587,427.1848874598071) translate(19.125 39.2)"/><use xlink:href="#ao" transform="matrix(1,0,0,1,328.56618087442587,427.1848874598071) translate(119.97500000000001 39.2)"/><use xlink:href="#ap" transform="matrix(1,0,0,1,328.56618087442587,427.1848874598071) translate(3.6499999999999915 60.800000000000004)"/><use xlink:href="#W" transform="matrix(1,0,0,1,328.56618087442587,427.1848874598071) translate(108.5 60.800000000000004)"/><use xlink:href="#aq" transform="matrix(1,0,0,1,328.56618087442587,427.1848874598071) translate(122.5 60.800000000000004)"/><use xlink:href="#d" transform="matrix(1,0,0,1,328.56618087442587,427.1848874598071) translate(12.674999999999997 82.40000000000002)"/><use xlink:href="#ar" transform="matrix(1,0,0,1,328.56618087442587,427.1848874598071) translate(31.624999999999996 82.40000000000002)"/><use xlink:href="#as" transform="matrix(1,0,0,1,328.56618087442587,427.1848874598071) translate(90.52499999999999 82.40000000000002)"/><use xlink:href="#at" transform="matrix(1,0,0,1,328.56618087442587,427.1848874598071) translate(11.599999999999994 104.00000000000001)"/><use xlink:href="#d" transform="matrix(1,0,0,1,328.56618087442587,427.1848874598071) translate(93.45 104.00000000000001)"/><use xlink:href="#K" transform="matrix(1,0,0,1,328.56618087442587,427.1848874598071) translate(112.4 104.00000000000001)"/><use xlink:href="#D" transform="matrix(1,0,0,1,328.56618087442587,427.1848874598071) translate(171.4 104.00000000000001)"/><use xlink:href="#al" transform="matrix(1,0,0,1,328.56618087442587,427.1848874598071) translate(55.525 125.60000000000001)"/><use xlink:href="#au" transform="matrix(1,0,0,1,328.56618087442587,427.1848874598071) translate(83.475 125.60000000000001)"/><path d="M98.28 423.2a8 8 0 0 1 8-8h164a8 8 0 0 1 8 8v143.98a8 8 0 0 1-8 8h-164a8 8 0 0 1-8-8z" stroke="#febed9" stroke-width="2" fill="#fff0fb"/><g><use xlink:href="#z" transform="matrix(1,0,0,1,110.28309043721296,427.1848874598071) translate(25.574999999999996 28.39999999999999)"/><use xlink:href="#A" transform="matrix(1,0,0,1,110.28309043721296,427.1848874598071) translate(94.475 28.39999999999999)"/><use xlink:href="#av" transform="matrix(1,0,0,1,110.28309043721296,427.1848874598071) translate(37.15 49.99999999999999)"/><use xlink:href="#Q" transform="matrix(1,0,0,1,110.28309043721296,427.1848874598071) translate(104.9 49.99999999999999)"/><use xlink:href="#O" transform="matrix(1,0,0,1,110.28309043721296,427.1848874598071) translate(10.125 71.6)"/><use xlink:href="#P" transform="matrix(1,0,0,1,110.28309043721296,427.1848874598071) translate(110.97500000000001 71.6)"/><use xlink:href="#Q" transform="matrix(1,0,0,1,110.28309043721296,427.1848874598071) translate(131.925 71.6)"/><use xlink:href="#R" transform="matrix(1,0,0,1,110.28309043721296,427.1848874598071) translate(0.5749999999999886 93.20000000000002)"/><use xlink:href="#S" transform="matrix(1,0,0,1,110.28309043721296,427.1848874598071) translate(96.425 93.20000000000002)"/><use xlink:href="#T" transform="matrix(1,0,0,1,110.28309043721296,427.1848874598071) translate(121.425 93.20000000000002)"/><use xlink:href="#U" transform="matrix(1,0,0,1,110.28309043721296,427.1848874598071) translate(27.549999999999997 114.80000000000001)"/><use xlink:href="#aw" transform="matrix(1,0,0,1,110.28309043721296,427.1848874598071) translate(52.55 114.80000000000001)"/></g><path d="M76.57 721.73a8 8 0 0 1 8-8H292a8 8 0 0 1 8 8v197.83a8 8 0 0 1-8 8H84.57a8 8 0 0 1-8-8z" stroke="#febed9" stroke-width="2" fill="#fff0fb"/><g><use xlink:href="#ax" transform="matrix(1,0,0,1,88.566180874426,725.7299035369773) translate(26.19999999999999 33.800000000000004)"/><use xlink:href="#d" transform="matrix(1,0,0,1,88.566180874426,725.7299035369773) translate(100.95 33.800000000000004)"/><use xlink:href="#ay" transform="matrix(1,0,0,1,88.566180874426,725.7299035369773) translate(119.9 33.800000000000004)"/><use xlink:href="#az" transform="matrix(1,0,0,1,88.566180874426,725.7299035369773) translate(0.17499999999999716 55.400000000000006)"/><use xlink:href="#W" transform="matrix(1,0,0,1,88.566180874426,725.7299035369773) translate(99.97500000000001 55.400000000000006)"/><use xlink:href="#al" transform="matrix(1,0,0,1,88.566180874426,725.7299035369773) translate(113.97500000000001 55.400000000000006)"/><use xlink:href="#aA" transform="matrix(1,0,0,1,88.566180874426,725.7299035369773) translate(141.925 55.400000000000006)"/><use xlink:href="#ab" transform="matrix(1,0,0,1,88.566180874426,725.7299035369773) translate(35.07499999999999 77.00000000000001)"/><use xlink:href="#aB" transform="matrix(1,0,0,1,88.566180874426,725.7299035369773) translate(60.07499999999999 77.00000000000001)"/><use xlink:href="#aC" transform="matrix(1,0,0,1,88.566180874426,725.7299035369773) translate(51.099999999999994 98.60000000000002)"/><use xlink:href="#aD" transform="matrix(1,0,0,1,88.566180874426,725.7299035369773) translate(134.95 98.60000000000002)"/><use xlink:href="#aE" transform="matrix(1,0,0,1,88.566180874426,725.7299035369773) translate(34.625 120.20000000000002)"/><use xlink:href="#aF" transform="matrix(1,0,0,1,88.566180874426,725.7299035369773) translate(141.425 120.20000000000002)"/><use xlink:href="#R" transform="matrix(1,0,0,1,88.566180874426,725.7299035369773) translate(33.599999999999994 141.8)"/><use xlink:href="#W" transform="matrix(1,0,0,1,88.566180874426,725.7299035369773) translate(129.45 141.8)"/><use xlink:href="#aG" transform="matrix(1,0,0,1,88.566180874426,725.7299035369773) translate(143.45 141.8)"/><use xlink:href="#au" transform="matrix(1,0,0,1,88.566180874426,725.7299035369773) translate(68 163.4)"/></g><path d="M260 988a8 8 0 0 1 8-8h224a8 8 0 0 1 8 8v152.2a8 8 0 0 1-8 8H268a8 8 0 0 1-8-8z" stroke="#b5d6ff" stroke-width="2" fill="#cfe4ff"/><g><use xlink:href="#z" transform="matrix(1,0,0,1,265,985) translate(12.674999999999997 29.1)"/><use xlink:href="#M" transform="matrix(1,0,0,1,265,985) translate(81.575 29.1)"/><use xlink:href="#at" transform="matrix(1,0,0,1,265,985) translate(122.525 29.1)"/><use xlink:href="#Q" transform="matrix(1,0,0,1,265,985) translate(204.375 29.1)"/><use xlink:href="#O" transform="matrix(1,0,0,1,265,985) translate(47.625 50.7)"/><use xlink:href="#P" transform="matrix(1,0,0,1,265,985) translate(148.47500000000002 50.7)"/><use xlink:href="#Q" transform="matrix(1,0,0,1,265,985) translate(169.425 50.7)"/><use xlink:href="#R" transform="matrix(1,0,0,1,265,985) translate(38.07499999999999 72.30000000000001)"/><use xlink:href="#aH" transform="matrix(1,0,0,1,265,985) translate(133.925 72.30000000000001)"/><use xlink:href="#aI" transform="matrix(1,0,0,1,265,985) translate(172.925 72.30000000000001)"/><use xlink:href="#aJ" transform="matrix(1,0,0,1,265,985) translate(0.7249999999999943 93.90000000000002)"/><use xlink:href="#aK" transform="matrix(1,0,0,1,265,985) translate(86.625 93.90000000000002)"/><use xlink:href="#d" transform="matrix(1,0,0,1,265,985) translate(157.425 93.90000000000002)"/><use xlink:href="#ay" transform="matrix(1,0,0,1,265,985) translate(176.375 93.90000000000002)"/><use xlink:href="#az" transform="matrix(1,0,0,1,265,985) translate(10.699999999999989 115.50000000000001)"/><use xlink:href="#W" transform="matrix(1,0,0,1,265,985) translate(110.5 115.50000000000001)"/><use xlink:href="#at" transform="matrix(1,0,0,1,265,985) translate(124.5 115.50000000000001)"/><use xlink:href="#aD" transform="matrix(1,0,0,1,265,985) translate(206.35000000000002 115.50000000000001)"/><use xlink:href="#aL" transform="matrix(1,0,0,1,265,985) translate(64.6 137.1)"/></g><path d="M670.92 748.73a8 8 0 0 1 8-8h224a8 8 0 0 1 8 8v152.2a8 8 0 0 1-8 8h-224a8 8 0 0 1-8-8z" stroke="#b5d6ff" stroke-width="2" fill="#cfe4ff"/><g><use xlink:href="#z" transform="matrix(1,0,0,1,675.9223397883809,745.7274919614149) translate(12.674999999999997 39.89999999999999)"/><use xlink:href="#M" transform="matrix(1,0,0,1,675.9223397883809,745.7274919614149) translate(81.575 39.89999999999999)"/><use xlink:href="#at" transform="matrix(1,0,0,1,675.9223397883809,745.7274919614149) translate(122.525 39.89999999999999)"/><use xlink:href="#Q" transform="matrix(1,0,0,1,675.9223397883809,745.7274919614149) translate(204.375 39.89999999999999)"/><use xlink:href="#aM" transform="matrix(1,0,0,1,675.9223397883809,745.7274919614149) translate(11.124999999999986 61.49999999999999)"/><use xlink:href="#R" transform="matrix(1,0,0,1,675.9223397883809,745.7274919614149) translate(85.12499999999999 61.49999999999999)"/><use xlink:href="#aN" transform="matrix(1,0,0,1,675.9223397883809,745.7274919614149) translate(180.97500000000002 61.49999999999999)"/><use xlink:href="#M" transform="matrix(1,0,0,1,675.9223397883809,745.7274919614149) translate(46.14999999999999 83.1)"/><use xlink:href="#ac" transform="matrix(1,0,0,1,675.9223397883809,745.7274919614149) translate(87.1 83.1)"/><use xlink:href="#aO" transform="matrix(1,0,0,1,675.9223397883809,745.7274919614149) translate(129 83.1)"/><use xlink:href="#P" transform="matrix(1,0,0,1,675.9223397883809,745.7274919614149) translate(149.95 83.1)"/><use xlink:href="#Q" transform="matrix(1,0,0,1,675.9223397883809,745.7274919614149) translate(170.9 83.1)"/><use xlink:href="#R" transform="matrix(1,0,0,1,675.9223397883809,745.7274919614149) translate(38.07499999999999 104.70000000000002)"/><use xlink:href="#aH" transform="matrix(1,0,0,1,675.9223397883809,745.7274919614149) translate(133.925 104.70000000000002)"/><use xlink:href="#aI" transform="matrix(1,0,0,1,675.9223397883809,745.7274919614149) translate(172.925 104.70000000000002)"/><use xlink:href="#aw" transform="matrix(1,0,0,1,675.9223397883809,745.7274919614149) translate(77.55 126.30000000000001)"/></g><path d="M628.26 1245.27a8 8 0 0 1 8-8h184a8 8 0 0 1 8 8v139.83a8 8 0 0 1-8 8h-184a8 8 0 0 1-8-8z" stroke="#febed9" stroke-width="2" fill="#fff0fb"/><g><use xlink:href="#aP" transform="matrix(1,0,0,1,640.2556731217143,1249.2709003215434) translate(16.174999999999997 37.19999999999999)"/><use xlink:href="#d" transform="matrix(1,0,0,1,640.2556731217143,1249.2709003215434) translate(86.97500000000001 37.19999999999999)"/><use xlink:href="#ay" transform="matrix(1,0,0,1,640.2556731217143,1249.2709003215434) translate(105.92500000000001 37.19999999999999)"/><use xlink:href="#az" transform="matrix(1,0,0,1,640.2556731217143,1249.2709003215434) translate(33.599999999999994 58.79999999999999)"/><use xlink:href="#aQ" transform="matrix(1,0,0,1,640.2556731217143,1249.2709003215434) translate(133.4 58.79999999999999)"/><use xlink:href="#at" transform="matrix(1,0,0,1,640.2556731217143,1249.2709003215434) translate(40.099999999999994 80.4)"/><use xlink:href="#aD" transform="matrix(1,0,0,1,640.2556731217143,1249.2709003215434) translate(121.95 80.4)"/><use xlink:href="#aL" transform="matrix(1,0,0,1,640.2556731217143,1249.2709003215434) translate(37.099999999999994 102)"/></g><path d="M280 1208a8 8 0 0 1 8-8h184a8 8 0 0 1 8 8v214.37a8 8 0 0 1-8 8H288a8 8 0 0 1-8-8z" stroke="#febed9" stroke-width="2" fill="#fff0fb"/><g><use xlink:href="#z" transform="matrix(1,0,0,1,292,1212) translate(36.074999999999996 42.300000000000004)"/><use xlink:href="#A" transform="matrix(1,0,0,1,292,1212) translate(104.975 42.300000000000004)"/><use xlink:href="#aR" transform="matrix(1,0,0,1,292,1212) translate(12.699999999999989 63.900000000000006)"/><use xlink:href="#d" transform="matrix(1,0,0,1,292,1212) translate(94.55 63.900000000000006)"/><use xlink:href="#ae" transform="matrix(1,0,0,1,292,1212) translate(113.5 63.900000000000006)"/><use xlink:href="#aS" transform="matrix(1,0,0,1,292,1212) translate(10.674999999999997 85.50000000000001)"/><use xlink:href="#aT" transform="matrix(1,0,0,1,292,1212) translate(74.57499999999999 85.50000000000001)"/><use xlink:href="#Q" transform="matrix(1,0,0,1,292,1212) translate(152.375 85.50000000000001)"/><use xlink:href="#ar" transform="matrix(1,0,0,1,292,1212) translate(29.575000000000003 107.10000000000002)"/><use xlink:href="#aU" transform="matrix(1,0,0,1,292,1212) translate(88.475 107.10000000000002)"/><use xlink:href="#aI" transform="matrix(1,0,0,1,292,1212) translate(127.425 107.10000000000002)"/><use xlink:href="#aV" transform="matrix(1,0,0,1,292,1212) translate(42.5 128.70000000000002)"/><use xlink:href="#aQ" transform="matrix(1,0,0,1,292,1212) translate(125.5 128.70000000000002)"/><use xlink:href="#aW" transform="matrix(1,0,0,1,292,1212) translate(19.099999999999994 150.3)"/><use xlink:href="#aX" transform="matrix(1,0,0,1,292,1212) translate(128.89999999999998 150.3)"/><use xlink:href="#aY" transform="matrix(1,0,0,1,292,1212) translate(16.049999999999997 171.9)"/><use xlink:href="#aZ" transform="matrix(1,0,0,1,292,1212) translate(81.95 171.9)"/></g><path d="M682.36 968a8 8 0 0 1 8-8h201.12a8 8 0 0 1 8 8v214.37a8 8 0 0 1-8 8H690.36a8 8 0 0 1-8-8z" stroke="#febed9" stroke-width="2" fill="#fff0fb"/><g><use xlink:href="#z" transform="matrix(1,0,0,1,694.3607506488322,972) translate(3.6499999999999915 42.300000000000004)"/><use xlink:href="#M" transform="matrix(1,0,0,1,694.3607506488322,972) translate(72.55 42.300000000000004)"/><use xlink:href="#ba" transform="matrix(1,0,0,1,694.3607506488322,972) translate(113.5 42.300000000000004)"/><use xlink:href="#d" transform="matrix(1,0,0,1,694.3607506488322,972) translate(21.075000000000003 63.900000000000006)"/><use xlink:href="#aM" transform="matrix(1,0,0,1,694.3607506488322,972) translate(40.025000000000006 63.900000000000006)"/><use xlink:href="#bb" transform="matrix(1,0,0,1,694.3607506488322,972) translate(114.025 63.900000000000006)"/><use xlink:href="#aT" transform="matrix(1,0,0,1,694.3607506488322,972) translate(14.125 85.50000000000001)"/><use xlink:href="#d" transform="matrix(1,0,0,1,694.3607506488322,972) translate(91.92500000000001 85.50000000000001)"/><use xlink:href="#ai" transform="matrix(1,0,0,1,694.3607506488322,972) translate(110.87500000000001 85.50000000000001)"/><use xlink:href="#ar" transform="matrix(1,0,0,1,694.3607506488322,972) translate(38.075 107.10000000000002)"/><use xlink:href="#aU" transform="matrix(1,0,0,1,694.3607506488322,972) translate(96.975 107.10000000000002)"/><use xlink:href="#aI" transform="matrix(1,0,0,1,694.3607506488322,972) translate(135.925 107.10000000000002)"/><use xlink:href="#aV" transform="matrix(1,0,0,1,694.3607506488322,972) translate(51 128.70000000000002)"/><use xlink:href="#aQ" transform="matrix(1,0,0,1,694.3607506488322,972) translate(134 128.70000000000002)"/><use xlink:href="#aW" transform="matrix(1,0,0,1,694.3607506488322,972) translate(27.599999999999994 150.3)"/><use xlink:href="#aX" transform="matrix(1,0,0,1,694.3607506488322,972) translate(137.39999999999998 150.3)"/><use xlink:href="#aY" transform="matrix(1,0,0,1,694.3607506488322,972) translate(24.549999999999997 171.9)"/><use xlink:href="#aZ" transform="matrix(1,0,0,1,694.3607506488322,972) translate(90.45 171.9)"/></g><path d="M164.93 175.2h54.25" stroke="#333" fill="none"/><path d="M164.95 175.66h-.52v-.95h.52z" stroke="#333" stroke-width=".05" fill="#333"/><path d="M233.95 175.2l-14.27 4.62v-9.27z" stroke="#333" fill="#333"/><path d="M538.07 175.2h29.82" stroke="#333" fill="none"/><path d="M538.08 175.66h-.5v-.95h.5z" stroke="#333" stroke-width=".05" fill="#333"/><path d="M582.66 175.2l-14.26 4.62v-9.27z" stroke="#333" fill="#333"/><path d="M781.5 175.2h29.37" stroke="#333" fill="none"/><path d="M781.5 175.66h-.5v-.95h.5z" stroke="#333" stroke-width=".05" fill="#333"/><path d="M825.64 175.2l-14.27 4.62v-9.27z" stroke="#333" fill="#333"/><path d="M1024.93 175.2h37.65" stroke="#333" fill="none"/><path d="M1024.95 175.66h-.52v-.95h.52z" stroke="#333" stroke-width=".05" fill="#333"/><path d="M1077.34 175.2l-14.26 4.62v-9.27z" stroke="#333" fill="#333"/><path d="M1223.35 339.98H980.32l-1.76.13-1.68.42-1.6.66-1.48.9-1.3 1.13-1.13 1.32-.9 1.48-.67 1.6-.4 1.68-.14 1.76v9.46h-1.95v-9.54l.17-2 .47-1.97.78-1.9 1.06-1.73 1.33-1.55 1.55-1.32 1.74-1.06 1.87-.78 1.98-.48 2-.16h243.1zm98.28-165.6l1.97.46 1.9.78 1.72 1.06 1.55 1.33 1.32 1.56 1.06 1.73.78 1.87.47 2 .17 1.98v139.9l-.16 1.98-.46 1.98-.78 1.9-1.07 1.73-1.33 1.55-1.55 1.32-1.73 1.06-1.9.78-1.97.48-2 .16h-79.28v-1.96h79.2l1.77-.13 1.68-.42 1.6-.66 1.47-.9 1.32-1.13 1.1-1.32.9-1.48.68-1.6.4-1.68.14-1.76V187.22l-.14-1.76-.4-1.68-.66-1.6-.9-1.47-1.13-1.3-1.33-1.13-1.47-.9-1.6-.67-1.68-.4-1.76-.14h-26.96v-1.95h27.03z" stroke="#008a0e" stroke-width=".05" fill="#008a0e"/><path d="M1292.62 176.16h-1.1l.08-.97-.08-1h1.1z" fill="#008a0e"/><path stroke="#008a0e" stroke-width=".05" fill="#008a0e"/><path d="M968.28 375.76l-4.63-14.26h9.27z" fill="#008a0e"/><path d="M968.28 378.92l-5.97-18.4h11.96zm-3.3-16.45l3.3 10.14 3.3-10.13z" stroke="#008a0e" stroke-width=".05" fill="#008a0e"/><g><use xlink:href="#bc" transform="matrix(1,0,0,1,1223.3464945666751,328.2000499999996) translate(0 14.4)"/></g><path d="M1186.25 451.8h-1.95v-66.96h1.95zm0-88.56h-1.95V278.8h1.95z" stroke="#e81313" stroke-width=".05" fill="#e81313"/><path d="M1185.28 277.8l.97-.1v1.1h-1.95v-1.1z" fill="#e81313"/><path stroke="#e81313" stroke-width=".05" fill="#e81313"/><path d="M1193.04 457.98L1179 452.7l5.78-7.24z" fill="#e81313"/><path d="M1195.5 459.95l-18.1-6.8 7.46-9.35zm-14.9-7.7l9.97 3.76-5.86-8.9z" stroke="#e81313" stroke-width=".05" fill="#e81313"/><g><use xlink:href="#bd" transform="matrix(1,0,0,1,1173.803498702336,363.23696926406177) translate(0 14.4)"/></g><path d="M893.35 460H867.2a12 12 0 0 1-12-12v-57a12 12 0 0 0-12-12h-122a12 12 0 0 0-12 12v11.62" stroke="#333" fill="none"/><path d="M893.85 460.48h-.5v-.96h.5z" stroke="#333" stroke-width=".05" fill="#333"/><path d="M709.2 417.38l-4.63-14.26h9.27z" stroke="#333" fill="#333"/><path d="M600.35 495.2h-39.53" stroke="#333" fill="none"/><path d="M600.85 495.66h-.52v-.95h.5z" stroke="#333" stroke-width=".05" fill="#333"/><path d="M546.05 495.2l14.27-4.65v9.27z" stroke="#333" fill="#333"/><path d="M315.07 495.2h-19.4" stroke="#333" fill="none"/><path d="M315.57 495.66h-.52v-.95h.52z" stroke="#333" stroke-width=".05" fill="#333"/><path d="M280.9 495.2l14.27-4.65v9.27z" stroke="#333" fill="#333"/><path d="M188.28 576.68v119.67" stroke="#333" fill="none"/><path d="M188.76 576.7h-.95v-.52h.96z" stroke="#333" stroke-width=".05" fill="#333"/><path d="M188.28 711.1l-4.63-14.25h9.27z" stroke="#333" fill="#333"/><path d="M301.5 820.64h70.02" stroke="#333" fill="none"/><path d="M301.5 821.12h-.5v-.95h.5z" stroke="#333" stroke-width=".05" fill="#333"/><path d="M386.28 820.64l-14.26 4.64V816z" stroke="#333" fill="#333"/><path d="M1100.72 574.8a10.67 10.67 0 0 1 12.8 0l67.2 50.4a6 6 0 0 1 0 9.6l-67.2 50.4a10.67 10.67 0 0 1-12.8 0l-67.2-50.4a6 6 0 0 1 0-9.6z" stroke="#b5d6ff" stroke-width="2" fill="#cfe4ff"/><g><use xlink:href="#be" transform="matrix(1,0,0,1,1032.1231782790974,575) translate(36.05 58.6)"/><use xlink:href="#bf" transform="matrix(1,0,0,1,1032.1231782790974,575) translate(62.05 58.6)"/><use xlink:href="#bg" transform="matrix(1,0,0,1,1032.1231782790974,575) translate(103.95 58.6)"/></g><path d="M1270 541.5v74.3a12 12 0 0 1-12 12h-57.87" stroke="#333" fill="none"/><path d="M1270.47 541.5h-.94v-.5h.94z" stroke="#333" stroke-width=".05" fill="#333"/><path d="M1185.37 627.8l14.26-4.63v9.27z" stroke="#333" fill="#333"/><path d="M1108.1 570.66h-1.95v-76.23h1.95zm-10.95-111.48l1.98.48 1.88.78 1.75 1.06 1.55 1.32 1.32 1.55 1.07 1.74.77 1.9.47 1.97.16 2v.86h-1.95v-.8l-.14-1.75-.4-1.7-.66-1.58-.9-1.48-1.12-1.3-1.32-1.14-1.47-.9-1.6-.66-1.68-.4-1.76-.14h-33.88v-1.96h33.94z" stroke="#008a0e" stroke-width=".05" fill="#008a0e"/><path d="M1108.1 571.73l-.98-.07-.97.07v-1.1h1.95z" fill="#008a0e"/><path stroke="#008a0e" stroke-width=".05" fill="#008a0e"/><path d="M1060.22 464.63l-14.27-4.63 14.27-4.63z" fill="#008a0e"/><path d="M1061.2 465.98l-18.4-5.98 18.4-5.98zm-12.1-5.98l10.14 3.3v-6.6z" stroke="#008a0e" stroke-width=".05" fill="#008a0e"/><g><use xlink:href="#bc" transform="matrix(1,0,0,1,1098.6231782790974,472.82914723570565) translate(0.005000000000000782 14.4)"/></g><path d="M710.18 617.96l.14 1.76.4 1.7.66 1.58.9 1.48 1.13 1.3 1.33 1.14 1.47.9 1.6.66 1.68.4 1.76.14h107.63V631h-107.7l-2-.16-1.97-.48-1.9-.78-1.72-1.06-1.55-1.32-1.32-1.55-1.06-1.74-.78-1.9-.47-1.97-.17-2v-28.16h1.95zm318.94 11.06V631h-177.3V629z" stroke="#e81313" stroke-width=".05" fill="#e81313"/><path d="M1030.12 630l.1.98h-1.13V629h1.1z" fill="#e81313"/><path stroke="#e81313" stroke-width=".05" fill="#e81313"/><path d="M713.84 588.87h-9.27l4.63-14.26z" fill="#e81313"/><path d="M715.18 589.85h-11.95l5.98-18.4zm-9.27-1.95h6.6l-3.3-10.14z" stroke="#e81313" stroke-width=".05" fill="#e81313"/><g><use xlink:href="#bd" transform="matrix(1,0,0,1,828.8720303971014,619.2) translate(0.005000000000000782 14.4)"/></g><path d="M790.92 910.43v32.2" stroke="#333" fill="none"/><path d="M791.4 910.44h-.95v-.5h.95z" stroke="#333" stroke-width=".05" fill="#333"/><path d="M790.92 957.38l-4.63-14.26h9.26z" stroke="#333" fill="#333"/><path d="M487.37 725.55a8.3 8.3 0 0 1 11.52 0l97.2 93.72a7.7 7.7 0 0 1 0 11.1l-97.2 93.73a8.3 8.3 0 0 1-11.53 0l-97.2-93.72a7.7 7.7 0 0 1 0-11.1z" stroke="#b5d6ff" stroke-width="2" fill="#cfe4ff"/><g><use xlink:href="#aa" transform="matrix(1,0,0,1,389.42004392094236,725.0000000000001) translate(8.174999999999997 82)"/><use xlink:href="#ab" transform="matrix(1,0,0,1,389.42004392094236,725.0000000000001) translate(34.175 82)"/><use xlink:href="#ac" transform="matrix(1,0,0,1,389.42004392094236,725.0000000000001) translate(59.175 82)"/><use xlink:href="#ad" transform="matrix(1,0,0,1,389.42004392094236,725.0000000000001) translate(101.075 82)"/><use xlink:href="#W" transform="matrix(1,0,0,1,389.42004392094236,725.0000000000001) translate(116.075 82)"/><use xlink:href="#d" transform="matrix(1,0,0,1,389.42004392094236,725.0000000000001) translate(130.075 82)"/><use xlink:href="#ae" transform="matrix(1,0,0,1,389.42004392094236,725.0000000000001) translate(149.02499999999998 82)"/><use xlink:href="#R" transform="matrix(1,0,0,1,389.42004392094236,725.0000000000001) translate(34.07499999999999 103.6)"/><use xlink:href="#af" transform="matrix(1,0,0,1,389.42004392094236,725.0000000000001) translate(129.925 103.6)"/><use xlink:href="#X" transform="matrix(1,0,0,1,389.42004392094236,725.0000000000001) translate(153.925 103.6)"/><use xlink:href="#ag" transform="matrix(1,0,0,1,389.42004392094236,725.0000000000001) translate(66.075 125.2)"/></g><path d="M626.18 825.8h-25.73v-1.95h25.73zm25.24 0h-8.24v-1.95h8.24z" stroke="#008a0e" stroke-width=".05" fill="#008a0e"/><path d="M600.47 825.8h-1.1l.08-.97-.08-.98h1.1z" fill="#008a0e"/><path stroke="#008a0e" stroke-width=".05" fill="#008a0e"/><path d="M666.7 824.83l-14.28 4.63v-9.27z" fill="#008a0e"/><path d="M669.84 824.83l-18.4 5.97v-11.95zm-16.45 3.3l10.13-3.3-10.13-3.3z" stroke="#008a0e" stroke-width=".05" fill="#008a0e"/><g><use xlink:href="#bc" transform="matrix(1,0,0,1,626.1854944954207,814.0271704180066) translate(0.005000000000000782 14.4)"/></g><path d="M425.1 954.2H387.3l-1.02.07-.97.23-.9.38-.85.52-.75.64-.65.75-.5.84-.4.9-.22.97-.1 1.08-1.93-.16.1-1.2.3-1.27.5-1.2.67-1.1.84-1 1-.84 1.1-.66 1.2-.5 1.25-.3 1.25-.1h37.84zm69-12.95l-.15 2-.47 1.98-.78 1.88-1.07 1.74-1.32 1.55-1.54 1.3-1.74 1.08-1.88.78-1.98.47-2 .16h-33.12v-1.96h33.05l1.76-.14 1.68-.4 1.6-.67 1.47-.9 1.33-1.12 1.12-1.3.9-1.48.67-1.6.4-1.68.14-1.76v-12.75h1.95z" stroke="#e81313" stroke-width=".05" fill="#e81313"/><path d="M493.13 927.43l.98-.08v1.1h-1.94v-1.1z" fill="#e81313"/><path stroke="#e81313" stroke-width=".05" fill="#e81313"/><path d="M380 975.76l-4.63-14.26h9.26z" fill="#e81313"/><path d="M380 978.92l-5.98-18.4h11.96zm-3.3-16.45l3.3 10.14 3.3-10.13z" stroke="#e81313" stroke-width=".05" fill="#e81313"/><g><use xlink:href="#bd" transform="matrix(1,0,0,1,425.091180874426,942.4142696571165) translate(0.005000000000000782 14.4)"/></g><path d="M380 1149.7v32.92" stroke="#333" fill="none"/><path d="M380.48 1149.7h-.96v-.5h.96z" stroke="#333" stroke-width=".05" fill="#333"/><path d="M380 1197.38l-4.63-14.26h9.26z" stroke="#333" fill="#333"/><path d="M790.92 1191.87v9.95a12 12 0 0 1-12 12h-51.44a6.07 6.07 0 0 0-6.06 6.07" stroke="#333" fill="none"/><path d="M791.4 1191.88h-.95v-.5h.95z" stroke="#333" stroke-width=".05" fill="#333"/><path d="M721.42 1234.65l-4.64-14.26h9.27z" stroke="#333" fill="#333"/><path d="M481.5 1315.18h129.37" stroke="#333" fill="none"/><path d="M481.5 1315.66h-.5v-.95h.5z" stroke="#333" stroke-width=".05" fill="#333"/><path d="M625.64 1315.18l-14.27 4.64v-9.27z" stroke="#333" fill="#333"/><defs><path fill="#333" d="M30 0v-248h187v28H63v79h144v27H63v87h162V0H30" id="bh"/><path fill="#333" d="M135-143c-3-34-86-38-87 0 15 53 115 12 119 90S17 21 10-45l28-5c4 36 97 45 98 0-10-56-113-15-118-90-4-57 82-63 122-42 12 7 21 19 24 35" id="bi"/><path fill="#333" d="M115-194c55 1 70 41 70 98S169 2 115 4C84 4 66-9 55-30l1 105H24l-1-265h31l2 30c10-21 28-34 59-34zm-8 174c40 0 45-34 45-75s-6-73-45-74c-42 0-51 32-51 76 0 43 10 73 51 73" id="bj"/><path fill="#333" d="M100-194c63 0 86 42 84 106H49c0 40 14 67 53 68 26 1 43-12 49-29l28 8c-11 28-37 45-77 45C44 4 14-33 15-96c1-61 26-98 85-98zm52 81c6-60-76-77-97-28-3 7-6 17-6 28h103" id="bk"/><path fill="#333" d="M114-163C36-179 61-72 57 0H25l-1-190h30c1 12-1 29 2 39 6-27 23-49 58-41v29" id="bl"/><path fill="#333" d="M141-36C126-15 110 5 73 4 37 3 15-17 15-53c-1-64 63-63 125-63 3-35-9-54-41-54-24 1-41 7-42 31l-33-3c5-37 33-52 76-52 45 0 72 20 72 64v82c-1 20 7 32 28 27v20c-31 9-61-2-59-35zM48-53c0 20 12 33 32 33 41-3 63-29 60-74-43 2-92-5-92 41" id="bm"/><g id="a"><use transform="matrix(0.05,0,0,0.05,0,0)" xlink:href="#bh"/><use transform="matrix(0.05,0,0,0.05,12,0)" xlink:href="#bi"/><use transform="matrix(0.05,0,0,0.05,21,0)" xlink:href="#bj"/><use transform="matrix(0.05,0,0,0.05,31,0)" xlink:href="#bk"/><use transform="matrix(0.05,0,0,0.05,41,0)" xlink:href="#bl"/><use transform="matrix(0.05,0,0,0.05,46.95,0)" xlink:href="#bm"/><use transform="matrix(0.05,0,0,0.05,56.95,0)" xlink:href="#bl"/></g><use transform="matrix(0.05,0,0,0.05,0,0)" xlink:href="#bm" id="b"/><path fill="#333" d="M145-31C134-9 116 4 85 4 32 4 16-35 15-94c0-59 17-99 70-100 32-1 48 14 60 33 0-11-1-24 2-32h30l-1 268h-32zM93-21c41 0 51-33 51-76s-8-73-50-73c-40 0-46 35-46 75s5 74 45 74" id="bn"/><path fill="#333" d="M84 4C-5 8 30-112 23-190h32v120c0 31 7 50 39 49 72-2 45-101 50-169h31l1 190h-30c-1-10 1-25-2-33-11 22-28 36-60 37" id="bo"/><g id="c"><use transform="matrix(0.05,0,0,0.05,0,0)" xlink:href="#bn"/><use transform="matrix(0.05,0,0,0.05,10,0)" xlink:href="#bo"/><use transform="matrix(0.05,0,0,0.05,20,0)" xlink:href="#bk"/></g><path fill="#333" d="M24 0v-261h32V0H24" id="bp"/><g id="d"><use transform="matrix(0.05,0,0,0.05,0,0)" xlink:href="#bk"/><use transform="matrix(0.05,0,0,0.05,10,0)" xlink:href="#bp"/></g><path fill="#333" d="M96-169c-40 0-48 33-48 73s9 75 48 75c24 0 41-14 43-38l32 2c-6 37-31 61-74 61-59 0-76-41-82-99-10-93 101-131 147-64 4 7 5 14 7 22l-32 3c-4-21-16-35-41-35" id="bq"/><path fill="#333" d="M100-194c62-1 85 37 85 99 1 63-27 99-86 99S16-35 15-95c0-66 28-99 85-99zM99-20c44 1 53-31 53-75 0-43-8-75-51-75s-53 32-53 75 10 74 51 75" id="br"/><path fill="#333" d="M117-194c89-4 53 116 60 194h-32v-121c0-31-8-49-39-48C34-167 62-67 57 0H25l-1-190h30c1 10-1 24 2 32 11-22 29-35 61-36" id="bs"/><path fill="#333" d="M59-47c-2 24 18 29 38 22v24C64 9 27 4 27-40v-127H5v-23h24l9-43h21v43h35v23H59v120" id="bt"/><path fill="#333" d="M24-231v-30h32v30H24zM24 0v-190h32V0H24" id="bu"/><path fill="#333" d="M85-194c31 0 48 13 60 33l-1-100h32l1 261h-30c-2-10 0-23-3-31C134-8 116 4 85 4 32 4 16-35 15-94c0-66 23-100 70-100zm9 24c-40 0-46 34-46 75 0 40 6 74 45 74 42 0 51-32 51-76 0-42-9-74-50-73" id="bv"/><g id="e"><use transform="matrix(0.05,0,0,0.05,0,0)" xlink:href="#bq"/><use transform="matrix(0.05,0,0,0.05,9,0)" xlink:href="#br"/><use transform="matrix(0.05,0,0,0.05,19,0)" xlink:href="#bs"/><use transform="matrix(0.05,0,0,0.05,29,0)" xlink:href="#bt"/><use transform="matrix(0.05,0,0,0.05,34,0)" xlink:href="#bk"/><use transform="matrix(0.05,0,0,0.05,44,0)" xlink:href="#bs"/><use transform="matrix(0.05,0,0,0.05,54,0)" xlink:href="#bu"/><use transform="matrix(0.05,0,0,0.05,57.95,0)" xlink:href="#bv"/><use transform="matrix(0.05,0,0,0.05,67.95,0)" xlink:href="#br"/></g><g id="f"><use transform="matrix(0.05,0,0,0.05,0,0)" xlink:href="#bv"/><use transform="matrix(0.05,0,0,0.05,10,0)" xlink:href="#bk"/><use transform="matrix(0.05,0,0,0.05,20,0)" xlink:href="#bp"/></g><path fill="#333" d="M30-248c118-7 216 8 213 122C240-48 200 0 122 0H30v-248zM63-27c89 8 146-16 146-99s-60-101-146-95v194" id="bw"/><path fill="#333" d="M140-251c81 0 123 46 123 126C263-46 219 4 140 4 59 4 17-45 17-125s42-126 123-126zm0 227c63 0 89-41 89-101s-29-99-89-99c-61 0-89 39-89 99S79-25 140-24" id="bx"/><path fill="#333" d="M240 0l2-218c-23 76-54 145-80 218h-23L58-218 59 0H30v-248h44l77 211c21-75 51-140 76-211h43V0h-30" id="by"/><g id="g"><use transform="matrix(0.05,0,0,0.05,0,0)" xlink:href="#bw"/><use transform="matrix(0.05,0,0,0.05,12.950000000000001,0)" xlink:href="#bx"/><use transform="matrix(0.05,0,0,0.05,26.950000000000003,0)" xlink:href="#by"/></g><path fill="#333" d="M100-194c63 0 86 42 84 106H49c0 40 14 67 53 68 26 1 43-12 49-29l28 8c-11 28-37 45-77 45C44 4 14-33 15-96c1-61 26-98 85-98zm52 81c6-60-76-77-97-28-3 7-6 17-6 28h103zm-74-98c8-23 27-35 38-54h36v5l-58 49H78" id="bz"/><g id="h"><use transform="matrix(0.05,0,0,0.05,0,0)" xlink:href="#bk"/><use transform="matrix(0.05,0,0,0.05,10,0)" xlink:href="#bi"/><use transform="matrix(0.05,0,0,0.05,19,0)" xlink:href="#bt"/><use transform="matrix(0.05,0,0,0.05,24,0)" xlink:href="#bz"/></g><path fill="#333" d="M177-190C167-65 218 103 67 71c-23-6-38-20-44-43l32-5c15 47 100 32 89-28v-30C133-14 115 1 83 1 29 1 15-40 15-95c0-56 16-97 71-98 29-1 48 16 59 35 1-10 0-23 2-32h30zM94-22c36 0 50-32 50-73 0-42-14-75-50-75-39 0-46 34-46 75s6 73 46 73" id="bA"/><g id="i"><use transform="matrix(0.05,0,0,0.05,0,0)" xlink:href="#bq"/><use transform="matrix(0.05,0,0,0.05,9,0)" xlink:href="#bm"/><use transform="matrix(0.05,0,0,0.05,19,0)" xlink:href="#bl"/><use transform="matrix(0.05,0,0,0.05,24.95,0)" xlink:href="#bA"/><use transform="matrix(0.05,0,0,0.05,34.95,0)" xlink:href="#bm"/><use transform="matrix(0.05,0,0,0.05,44.95,0)" xlink:href="#bv"/><use transform="matrix(0.05,0,0,0.05,54.95,0)" xlink:href="#br"/></g><path fill="#333" d="M33 0v-248h34V0H33" id="bB"/><path fill="#333" d="M9 0v-24l116-142H16v-24h144v24L44-24h123V0H9" id="bC"/><g id="j"><use transform="matrix(0.05,0,0,0.05,0,0)" xlink:href="#bB"/><use transform="matrix(0.05,0,0,0.05,5,0)" xlink:href="#bs"/><use transform="matrix(0.05,0,0,0.05,15,0)" xlink:href="#bu"/><use transform="matrix(0.05,0,0,0.05,18.95,0)" xlink:href="#bq"/><use transform="matrix(0.05,0,0,0.05,27.950000000000003,0)" xlink:href="#bu"/><use transform="matrix(0.05,0,0,0.05,31.899999999999995,0)" xlink:href="#bm"/><use transform="matrix(0.05,0,0,0.05,41.9,0)" xlink:href="#bp"/><use transform="matrix(0.05,0,0,0.05,45.85,0)" xlink:href="#bu"/><use transform="matrix(0.05,0,0,0.05,49.800000000000004,0)" xlink:href="#bC"/><use transform="matrix(0.05,0,0,0.05,58.800000000000004,0)" xlink:href="#bm"/><use transform="matrix(0.05,0,0,0.05,68.80000000000001,0)" xlink:href="#bl"/></g><path fill="#333" d="M108 0H70L1-190h34L89-25l56-165h34" id="bD"/><path fill="#333" d="M115-194c53 0 69 39 70 98 0 66-23 100-70 100C84 3 66-7 56-30L54 0H23l1-261h32v101c10-23 28-34 59-34zm-8 174c40 0 45-34 45-75 0-40-5-75-45-74-42 0-51 32-51 76 0 43 10 73 51 73" id="bE"/><g id="k"><use transform="matrix(0.05,0,0,0.05,0,0)" xlink:href="#bD"/><use transform="matrix(0.05,0,0,0.05,9,0)" xlink:href="#bm"/><use transform="matrix(0.05,0,0,0.05,19,0)" xlink:href="#bl"/><use transform="matrix(0.05,0,0,0.05,24.95,0)" xlink:href="#bu"/><use transform="matrix(0.05,0,0,0.05,28.899999999999995,0)" xlink:href="#bm"/><use transform="matrix(0.05,0,0,0.05,38.9,0)" xlink:href="#bE"/><use transform="matrix(0.05,0,0,0.05,48.9,0)" xlink:href="#bp"/><use transform="matrix(0.05,0,0,0.05,52.85,0)" xlink:href="#bk"/><use transform="matrix(0.05,0,0,0.05,62.85,0)" xlink:href="#bi"/></g><path fill="#333" d="M33-154v-36h34v36H33zM33 0v-36h34V0H33" id="bF"/><g id="l"><use transform="matrix(0.05,0,0,0.05,0,0)" xlink:href="#bA"/><use transform="matrix(0.05,0,0,0.05,10,0)" xlink:href="#bp"/><use transform="matrix(0.05,0,0,0.05,13.949999999999998,0)" xlink:href="#br"/><use transform="matrix(0.05,0,0,0.05,23.95,0)" xlink:href="#bE"/><use transform="matrix(0.05,0,0,0.05,33.95,0)" xlink:href="#bm"/><use transform="matrix(0.05,0,0,0.05,43.95,0)" xlink:href="#bp"/><use transform="matrix(0.05,0,0,0.05,47.900000000000006,0)" xlink:href="#bk"/><use transform="matrix(0.05,0,0,0.05,57.900000000000006,0)" xlink:href="#bi"/><use transform="matrix(0.05,0,0,0.05,66.9,0)" xlink:href="#bF"/></g><path fill="#333" d="M210-169c-67 3-38 105-44 169h-31v-121c0-29-5-50-35-48C34-165 62-65 56 0H25l-1-190h30c1 10-1 24 2 32 10-44 99-50 107 0 11-21 27-35 58-36 85-2 47 119 55 194h-31v-121c0-29-5-49-35-48" id="bG"/><path fill="#333" d="M68-38c1 34 0 65-14 84H32c9-13 17-26 17-46H33v-38h35" id="bH"/><g id="m"><use transform="matrix(0.05,0,0,0.05,0,0)" xlink:href="#bt"/><use transform="matrix(0.05,0,0,0.05,5,0)" xlink:href="#bu"/><use transform="matrix(0.05,0,0,0.05,8.95,0)" xlink:href="#bG"/><use transform="matrix(0.05,0,0,0.05,23.9,0)" xlink:href="#bk"/><use transform="matrix(0.05,0,0,0.05,33.9,0)" xlink:href="#bl"/><use transform="matrix(0.05,0,0,0.05,38.85,0)" xlink:href="#bH"/></g><path fill="#333" d="M101-251c82-7 93 87 43 132L82-64C71-53 59-42 53-27h129V0H18c2-99 128-94 128-182 0-28-16-43-45-43s-46 15-49 41l-32-3c6-41 34-60 81-64" id="bI"/><g id="n"><use transform="matrix(0.05,0,0,0.05,0,0)" xlink:href="#bt"/><use transform="matrix(0.05,0,0,0.05,5,0)" xlink:href="#bu"/><use transform="matrix(0.05,0,0,0.05,8.95,0)" xlink:href="#bG"/><use transform="matrix(0.05,0,0,0.05,23.9,0)" xlink:href="#bk"/><use transform="matrix(0.05,0,0,0.05,33.9,0)" xlink:href="#bl"/><use transform="matrix(0.05,0,0,0.05,39.85,0)" xlink:href="#bI"/><use transform="matrix(0.05,0,0,0.05,49.85,0)" xlink:href="#bH"/></g><g id="o"><use transform="matrix(0.05,0,0,0.05,0,0)" xlink:href="#bl"/><use transform="matrix(0.05,0,0,0.05,5.95,0)" xlink:href="#bo"/><use transform="matrix(0.05,0,0,0.05,15.949999999999998,0)" xlink:href="#bs"/><use transform="matrix(0.05,0,0,0.05,25.950000000000003,0)" xlink:href="#bs"/><use transform="matrix(0.05,0,0,0.05,35.95,0)" xlink:href="#bu"/><use transform="matrix(0.05,0,0,0.05,39.900000000000006,0)" xlink:href="#bs"/><use transform="matrix(0.05,0,0,0.05,49.900000000000006,0)" xlink:href="#bA"/><use transform="matrix(0.05,0,0,0.05,59.900000000000006,0)" xlink:href="#bH"/></g><path fill="#333" d="M127-220V0H93v-220H8v-28h204v28h-85" id="bJ"/><g id="p"><use transform="matrix(0.05,0,0,0.05,0,0)" xlink:href="#bi"/><use transform="matrix(0.05,0,0,0.05,9,0)" xlink:href="#bt"/><use transform="matrix(0.05,0,0,0.05,14,0)" xlink:href="#bm"/><use transform="matrix(0.05,0,0,0.05,24,0)" xlink:href="#bl"/><use transform="matrix(0.05,0,0,0.05,29.950000000000003,0)" xlink:href="#bt"/><use transform="matrix(0.05,0,0,0.05,34.95,0)" xlink:href="#bJ"/><use transform="matrix(0.05,0,0,0.05,45.25000000000001,0)" xlink:href="#bu"/><use transform="matrix(0.05,0,0,0.05,49.20000000000001,0)" xlink:href="#bG"/><use transform="matrix(0.05,0,0,0.05,64.15,0)" xlink:href="#bk"/><use transform="matrix(0.05,0,0,0.05,74.15,0)" xlink:href="#bH"/></g><path fill="#333" d="M185-189c-5-48-123-54-124 2 14 75 158 14 163 119 3 78-121 87-175 55-17-10-28-26-33-46l33-7c5 56 141 63 141-1 0-78-155-14-162-118-5-82 145-84 179-34 5 7 8 16 11 25" id="bK"/><g id="q"><use transform="matrix(0.05,0,0,0.05,0,0)" xlink:href="#bi"/><use transform="matrix(0.05,0,0,0.05,9,0)" xlink:href="#bt"/><use transform="matrix(0.05,0,0,0.05,14,0)" xlink:href="#bm"/><use transform="matrix(0.05,0,0,0.05,24,0)" xlink:href="#bl"/><use transform="matrix(0.05,0,0,0.05,29.950000000000003,0)" xlink:href="#bt"/><use transform="matrix(0.05,0,0,0.05,34.95,0)" xlink:href="#bK"/><use transform="matrix(0.05,0,0,0.05,46.95,0)" xlink:href="#bk"/><use transform="matrix(0.05,0,0,0.05,56.95,0)" xlink:href="#bq"/><use transform="matrix(0.05,0,0,0.05,65.95,0)" xlink:href="#br"/><use transform="matrix(0.05,0,0,0.05,75.95,0)" xlink:href="#bs"/><use transform="matrix(0.05,0,0,0.05,85.95,0)" xlink:href="#bv"/><use transform="matrix(0.05,0,0,0.05,95.95,0)" xlink:href="#bJ"/><use transform="matrix(0.05,0,0,0.05,106.25,0)" xlink:href="#bu"/><use transform="matrix(0.05,0,0,0.05,110.2,0)" xlink:href="#bG"/><use transform="matrix(0.05,0,0,0.05,125.15,0)" xlink:href="#bk"/><use transform="matrix(0.05,0,0,0.05,135.15,0)" xlink:href="#bH"/></g><g id="r"><use transform="matrix(0.05,0,0,0.05,0,0)" xlink:href="#bk"/><use transform="matrix(0.05,0,0,0.05,10,0)" xlink:href="#bp"/><use transform="matrix(0.05,0,0,0.05,13.949999999999998,0)" xlink:href="#bm"/><use transform="matrix(0.05,0,0,0.05,23.95,0)" xlink:href="#bj"/><use transform="matrix(0.05,0,0,0.05,33.95,0)" xlink:href="#bi"/><use transform="matrix(0.05,0,0,0.05,42.95,0)" xlink:href="#bk"/><use transform="matrix(0.05,0,0,0.05,52.95,0)" xlink:href="#bv"/><use transform="matrix(0.05,0,0,0.05,62.95,0)" xlink:href="#bJ"/><use transform="matrix(0.05,0,0,0.05,73.25,0)" xlink:href="#bu"/><use transform="matrix(0.05,0,0,0.05,77.2,0)" xlink:href="#bG"/><use transform="matrix(0.05,0,0,0.05,92.15,0)" xlink:href="#bk"/><use transform="matrix(0.05,0,0,0.05,102.15,0)" xlink:href="#bH"/></g><g id="s"><use transform="matrix(0.05,0,0,0.05,0,0)" xlink:href="#bk"/><use transform="matrix(0.05,0,0,0.05,10,0)" xlink:href="#bp"/><use transform="matrix(0.05,0,0,0.05,13.949999999999998,0)" xlink:href="#bm"/><use transform="matrix(0.05,0,0,0.05,23.95,0)" xlink:href="#bj"/><use transform="matrix(0.05,0,0,0.05,33.95,0)" xlink:href="#bi"/><use transform="matrix(0.05,0,0,0.05,42.95,0)" xlink:href="#bk"/><use transform="matrix(0.05,0,0,0.05,52.95,0)" xlink:href="#bv"/><use transform="matrix(0.05,0,0,0.05,62.95,0)" xlink:href="#bK"/><use transform="matrix(0.05,0,0,0.05,74.95,0)" xlink:href="#bk"/><use transform="matrix(0.05,0,0,0.05,84.95,0)" xlink:href="#bq"/><use transform="matrix(0.05,0,0,0.05,93.95,0)" xlink:href="#br"/><use transform="matrix(0.05,0,0,0.05,103.95,0)" xlink:href="#bs"/><use transform="matrix(0.05,0,0,0.05,113.95,0)" xlink:href="#bv"/><use transform="matrix(0.05,0,0,0.05,123.95,0)" xlink:href="#bJ"/><use transform="matrix(0.05,0,0,0.05,134.25,0)" xlink:href="#bu"/><use transform="matrix(0.05,0,0,0.05,138.2,0)" xlink:href="#bG"/><use transform="matrix(0.05,0,0,0.05,153.14999999999998,0)" xlink:href="#bk"/><use transform="matrix(0.05,0,0,0.05,163.14999999999998,0)" xlink:href="#bH"/></g><path fill="#333" d="M179-190L93 31C79 59 56 82 12 73V49c39 6 53-20 64-50L1-190h34L92-34l54-156h33" id="bL"/><path fill="#333" d="M137 0h-34L2-248h35l83 218 83-218h36" id="bM"/><g id="t"><use transform="matrix(0.05,0,0,0.05,0,0)" xlink:href="#bj"/><use transform="matrix(0.05,0,0,0.05,10,0)" xlink:href="#bk"/><use transform="matrix(0.05,0,0,0.05,20,0)" xlink:href="#bs"/><use transform="matrix(0.05,0,0,0.05,30,0)" xlink:href="#bm"/><use transform="matrix(0.05,0,0,0.05,40,0)" xlink:href="#bp"/><use transform="matrix(0.05,0,0,0.05,43.95,0)" xlink:href="#bt"/><use transform="matrix(0.05,0,0,0.05,48.95,0)" xlink:href="#bL"/><use transform="matrix(0.05,0,0,0.05,57.95,0)" xlink:href="#bM"/><use transform="matrix(0.05,0,0,0.05,68.6,0)" xlink:href="#bm"/><use transform="matrix(0.05,0,0,0.05,78.6,0)" xlink:href="#bp"/><use transform="matrix(0.05,0,0,0.05,82.55,0)" xlink:href="#bo"/><use transform="matrix(0.05,0,0,0.05,92.55,0)" xlink:href="#bk"/><use transform="matrix(0.05,0,0,0.05,102.55000000000001,0)" xlink:href="#bH"/></g><path fill="#333" d="M30-248c87 1 191-15 191 75 0 78-77 80-158 76V0H30v-248zm33 125c57 0 124 11 124-50 0-59-68-47-124-48v98" id="bN"/><g id="u"><use transform="matrix(0.05,0,0,0.05,0,0)" xlink:href="#bi"/><use transform="matrix(0.05,0,0,0.05,9,0)" xlink:href="#bk"/><use transform="matrix(0.05,0,0,0.05,19,0)" xlink:href="#bq"/><use transform="matrix(0.05,0,0,0.05,28,0)" xlink:href="#br"/><use transform="matrix(0.05,0,0,0.05,38,0)" xlink:href="#bs"/><use transform="matrix(0.05,0,0,0.05,48,0)" xlink:href="#bv"/><use transform="matrix(0.05,0,0,0.05,58,0)" xlink:href="#bN"/><use transform="matrix(0.05,0,0,0.05,70,0)" xlink:href="#bk"/><use transform="matrix(0.05,0,0,0.05,80,0)" xlink:href="#bs"/><use transform="matrix(0.05,0,0,0.05,90,0)" xlink:href="#bm"/><use transform="matrix(0.05,0,0,0.05,100,0)" xlink:href="#bp"/><use transform="matrix(0.05,0,0,0.05,103.95,0)" xlink:href="#bt"/><use transform="matrix(0.05,0,0,0.05,108.95,0)" xlink:href="#bL"/><use transform="matrix(0.05,0,0,0.05,117.95,0)" xlink:href="#bM"/><use transform="matrix(0.05,0,0,0.05,128.60000000000002,0)" xlink:href="#bm"/><use transform="matrix(0.05,0,0,0.05,138.60000000000002,0)" xlink:href="#bp"/><use transform="matrix(0.05,0,0,0.05,142.55,0)" xlink:href="#bo"/><use transform="matrix(0.05,0,0,0.05,152.55,0)" xlink:href="#bk"/><use transform="matrix(0.05,0,0,0.05,162.55,0)" xlink:href="#bH"/></g><g id="v"><use transform="matrix(0.05,0,0,0.05,0,0)" xlink:href="#bi"/><use transform="matrix(0.05,0,0,0.05,9,0)" xlink:href="#bt"/><use transform="matrix(0.05,0,0,0.05,14,0)" xlink:href="#bm"/><use transform="matrix(0.05,0,0,0.05,24,0)" xlink:href="#bl"/><use transform="matrix(0.05,0,0,0.05,29.950000000000003,0)" xlink:href="#bt"/><use transform="matrix(0.05,0,0,0.05,34.95,0)" xlink:href="#bk"/><use transform="matrix(0.05,0,0,0.05,44.95,0)" xlink:href="#bv"/><use transform="matrix(0.05,0,0,0.05,54.95,0)" xlink:href="#bJ"/><use transform="matrix(0.05,0,0,0.05,65.25,0)" xlink:href="#bu"/><use transform="matrix(0.05,0,0,0.05,69.2,0)" xlink:href="#bG"/><use transform="matrix(0.05,0,0,0.05,84.15,0)" xlink:href="#bk"/><use transform="matrix(0.05,0,0,0.05,94.15,0)" xlink:href="#bH"/></g><g id="w"><use transform="matrix(0.05,0,0,0.05,0,0)" xlink:href="#bl"/><use transform="matrix(0.05,0,0,0.05,5.95,0)" xlink:href="#bk"/><use transform="matrix(0.05,0,0,0.05,15.949999999999998,0)" xlink:href="#bi"/><use transform="matrix(0.05,0,0,0.05,24.95,0)" xlink:href="#bk"/><use transform="matrix(0.05,0,0,0.05,34.95,0)" xlink:href="#bt"/><use transform="matrix(0.05,0,0,0.05,39.95,0)" xlink:href="#bk"/><use transform="matrix(0.05,0,0,0.05,49.95,0)" xlink:href="#bv"/><use transform="matrix(0.05,0,0,0.05,59.95,0)" xlink:href="#bH"/></g><g id="x"><use transform="matrix(0.05,0,0,0.05,0,0)" xlink:href="#bi"/><use transform="matrix(0.05,0,0,0.05,9,0)" xlink:href="#bm"/><use transform="matrix(0.05,0,0,0.05,19,0)" xlink:href="#bD"/><use transform="matrix(0.05,0,0,0.05,28,0)" xlink:href="#bk"/><use transform="matrix(0.05,0,0,0.05,38,0)" xlink:href="#bv"/><use transform="matrix(0.05,0,0,0.05,48,0)" xlink:href="#bH"/></g><g id="y"><use transform="matrix(0.05,0,0,0.05,0,0)" xlink:href="#bp"/><use transform="matrix(0.05,0,0,0.05,3.95,0)" xlink:href="#bk"/><use transform="matrix(0.05,0,0,0.05,13.949999999999998,0)" xlink:href="#bD"/><use transform="matrix(0.05,0,0,0.05,22.95,0)" xlink:href="#bk"/><use transform="matrix(0.05,0,0,0.05,32.95,0)" xlink:href="#bp"/></g><path fill="#333" d="M63-220v92h138v28H63V0H30v-248h175v28H63" id="bO"/><path fill="#333" d="M100-194c62-1 85 37 85 99 1 63-27 99-86 99S16-35 15-95c0-66 28-99 85-99zM99-20c44 1 53-31 53-75 0-43-8-75-51-75s-53 32-53 75 10 74 51 75zM76-211c8-23 27-35 38-54h36v5l-58 49H76" id="bP"/><g id="z"><use transform="matrix(0.05,0,0,0.05,0,0)" xlink:href="#bO"/><use transform="matrix(0.05,0,0,0.05,10.950000000000001,0)" xlink:href="#bo"/><use transform="matrix(0.05,0,0,0.05,20.950000000000003,0)" xlink:href="#bs"/><use transform="matrix(0.05,0,0,0.05,30.950000000000003,0)" xlink:href="#bq"/><use transform="matrix(0.05,0,0,0.05,39.95,0)" xlink:href="#bu"/><use transform="matrix(0.05,0,0,0.05,43.900000000000006,0)" xlink:href="#bP"/><use transform="matrix(0.05,0,0,0.05,53.900000000000006,0)" xlink:href="#bs"/></g><g id="A"><use transform="matrix(0.05,0,0,0.05,0,0)" xlink:href="#bj"/><use transform="matrix(0.05,0,0,0.05,10,0)" xlink:href="#bm"/><use transform="matrix(0.05,0,0,0.05,20,0)" xlink:href="#bl"/><use transform="matrix(0.05,0,0,0.05,25.950000000000003,0)" xlink:href="#bm"/></g><path fill="#333" d="M106-169C34-169 62-67 57 0H25v-261h32l-1 103c12-21 28-36 61-36 89 0 53 116 60 194h-32v-121c2-32-8-49-39-48" id="bQ"/><path fill="#333" d="M0 4l72-265h28L28 4H0" id="bR"/><g id="B"><use transform="matrix(0.05,0,0,0.05,0,0)" xlink:href="#bQ"/><use transform="matrix(0.05,0,0,0.05,10,0)" xlink:href="#bm"/><use transform="matrix(0.05,0,0,0.05,20,0)" xlink:href="#bE"/><use transform="matrix(0.05,0,0,0.05,30,0)" xlink:href="#bu"/><use transform="matrix(0.05,0,0,0.05,33.95,0)" xlink:href="#bp"/><use transform="matrix(0.05,0,0,0.05,37.900000000000006,0)" xlink:href="#bu"/><use transform="matrix(0.05,0,0,0.05,41.85000000000001,0)" xlink:href="#bt"/><use transform="matrix(0.05,0,0,0.05,46.85000000000001,0)" xlink:href="#bm"/><use transform="matrix(0.05,0,0,0.05,56.85,0)" xlink:href="#bl"/><use transform="matrix(0.05,0,0,0.05,62.80000000000001,0)" xlink:href="#bR"/><use transform="matrix(0.05,0,0,0.05,67.80000000000001,0)" xlink:href="#bv"/><use transform="matrix(0.05,0,0,0.05,77.80000000000001,0)" xlink:href="#bk"/><use transform="matrix(0.05,0,0,0.05,87.80000000000001,0)" xlink:href="#bi"/><use transform="matrix(0.05,0,0,0.05,96.80000000000001,0)" xlink:href="#bQ"/><use transform="matrix(0.05,0,0,0.05,106.80000000000001,0)" xlink:href="#bm"/><use transform="matrix(0.05,0,0,0.05,116.80000000000001,0)" xlink:href="#bE"/><use transform="matrix(0.05,0,0,0.05,126.80000000000001,0)" xlink:href="#bu"/><use transform="matrix(0.05,0,0,0.05,130.75,0)" xlink:href="#bp"/><use transform="matrix(0.05,0,0,0.05,134.7,0)" xlink:href="#bu"/><use transform="matrix(0.05,0,0,0.05,138.64999999999998,0)" xlink:href="#bt"/><use transform="matrix(0.05,0,0,0.05,143.64999999999998,0)" xlink:href="#bm"/><use transform="matrix(0.05,0,0,0.05,153.64999999999998,0)" xlink:href="#bl"/></g><g id="C"><use transform="matrix(0.05,0,0,0.05,0,0)" xlink:href="#bE"/><use transform="matrix(0.05,0,0,0.05,10,0)" xlink:href="#br"/><use transform="matrix(0.05,0,0,0.05,20,0)" xlink:href="#bt"/><use transform="matrix(0.05,0,0,0.05,25,0)" xlink:href="#br"/><use transform="matrix(0.05,0,0,0.05,35,0)" xlink:href="#bs"/><use transform="matrix(0.05,0,0,0.05,45,0)" xlink:href="#bk"/><use transform="matrix(0.05,0,0,0.05,55,0)" xlink:href="#bi"/></g><g id="D"><use transform="matrix(0.05,0,0,0.05,0,0)" xlink:href="#bv"/><use transform="matrix(0.05,0,0,0.05,10,0)" xlink:href="#bk"/></g><g id="E"><use transform="matrix(0.05,0,0,0.05,0,0)" xlink:href="#bj"/><use transform="matrix(0.05,0,0,0.05,10,0)" xlink:href="#bk"/><use transform="matrix(0.05,0,0,0.05,20,0)" xlink:href="#bs"/><use transform="matrix(0.05,0,0,0.05,30,0)" xlink:href="#bm"/><use transform="matrix(0.05,0,0,0.05,40,0)" xlink:href="#bp"/><use transform="matrix(0.05,0,0,0.05,43.95,0)" xlink:href="#bu"/><use transform="matrix(0.05,0,0,0.05,47.900000000000006,0)" xlink:href="#bC"/><use transform="matrix(0.05,0,0,0.05,56.900000000000006,0)" xlink:href="#bm"/><use transform="matrix(0.05,0,0,0.05,66.9,0)" xlink:href="#bq"/><use transform="matrix(0.05,0,0,0.05,75.9,0)" xlink:href="#bu"/><use transform="matrix(0.05,0,0,0.05,79.85000000000001,0)" xlink:href="#bP"/><use transform="matrix(0.05,0,0,0.05,89.85000000000001,0)" xlink:href="#bs"/><use transform="matrix(0.05,0,0,0.05,99.85000000000001,0)" xlink:href="#bF"/></g><path fill="#333" d="M205 0l-28-72H64L36 0H1l101-248h38L239 0h-34zm-38-99l-47-123c-12 45-31 82-46 123h93" id="bS"/><g id="F"><use transform="matrix(0.05,0,0,0.05,0,0)" xlink:href="#bS"/><use transform="matrix(0.05,0,0,0.05,12,0)" xlink:href="#bq"/><use transform="matrix(0.05,0,0,0.05,21,0)" xlink:href="#bt"/><use transform="matrix(0.05,0,0,0.05,26,0)" xlink:href="#bu"/><use transform="matrix(0.05,0,0,0.05,29.950000000000003,0)" xlink:href="#bD"/><use transform="matrix(0.05,0,0,0.05,38.95,0)" xlink:href="#bm"/><use transform="matrix(0.05,0,0,0.05,48.95,0)" xlink:href="#bl"/></g><use transform="matrix(0.05,0,0,0.05,0,0)" xlink:href="#br" id="G"/><g id="H"><use transform="matrix(0.05,0,0,0.05,0,0)" xlink:href="#bv"/><use transform="matrix(0.05,0,0,0.05,10,0)" xlink:href="#bk"/><use transform="matrix(0.05,0,0,0.05,20,0)" xlink:href="#bi"/><use transform="matrix(0.05,0,0,0.05,29,0)" xlink:href="#bm"/><use transform="matrix(0.05,0,0,0.05,39,0)" xlink:href="#bq"/><use transform="matrix(0.05,0,0,0.05,48,0)" xlink:href="#bt"/><use transform="matrix(0.05,0,0,0.05,53,0)" xlink:href="#bu"/><use transform="matrix(0.05,0,0,0.05,56.95,0)" xlink:href="#bD"/><use transform="matrix(0.05,0,0,0.05,65.95,0)" xlink:href="#bm"/><use transform="matrix(0.05,0,0,0.05,75.95,0)" xlink:href="#bl"/></g><g id="I"><use transform="matrix(0.05,0,0,0.05,0,0)" xlink:href="#bE"/><use transform="matrix(0.05,0,0,0.05,10,0)" xlink:href="#br"/><use transform="matrix(0.05,0,0,0.05,20,0)" xlink:href="#bt"/><use transform="matrix(0.05,0,0,0.05,25,0)" xlink:href="#br"/><use transform="matrix(0.05,0,0,0.05,35,0)" xlink:href="#bs"/><use transform="matrix(0.05,0,0,0.05,45,0)" xlink:href="#bk"/><use transform="matrix(0.05,0,0,0.05,55,0)" xlink:href="#bi"/></g><path fill="#333" d="M85 4C-4 8 31-112 24-190h32v120c0 31 7 50 39 49 72-2 45-101 50-169h31l1 190h-30c-1-10 1-25-2-33-11 22-28 36-60 37zM73-211c8-23 27-35 38-54h36v5l-58 49H73" id="bT"/><g id="J"><use transform="matrix(0.05,0,0,0.05,0,0)" xlink:href="#bi"/><use transform="matrix(0.05,0,0,0.05,9,0)" xlink:href="#bk"/><use transform="matrix(0.05,0,0,0.05,19,0)" xlink:href="#bA"/><use transform="matrix(0.05,0,0,0.05,29,0)" xlink:href="#bT"/><use transform="matrix(0.05,0,0,0.05,39,0)" xlink:href="#bs"/></g><g id="K"><use transform="matrix(0.05,0,0,0.05,0,0)" xlink:href="#bk"/><use transform="matrix(0.05,0,0,0.05,10,0)" xlink:href="#bi"/><use transform="matrix(0.05,0,0,0.05,19,0)" xlink:href="#bt"/><use transform="matrix(0.05,0,0,0.05,24,0)" xlink:href="#bm"/><use transform="matrix(0.05,0,0,0.05,34,0)" xlink:href="#bv"/><use transform="matrix(0.05,0,0,0.05,44,0)" xlink:href="#br"/></g><g id="L"><use transform="matrix(0.05,0,0,0.05,0,0)" xlink:href="#bQ"/><use transform="matrix(0.05,0,0,0.05,10,0)" xlink:href="#bm"/><use transform="matrix(0.05,0,0,0.05,20,0)" xlink:href="#bE"/><use transform="matrix(0.05,0,0,0.05,30,0)" xlink:href="#bu"/><use transform="matrix(0.05,0,0,0.05,33.95,0)" xlink:href="#bp"/><use transform="matrix(0.05,0,0,0.05,37.900000000000006,0)" xlink:href="#bu"/><use transform="matrix(0.05,0,0,0.05,41.85000000000001,0)" xlink:href="#bt"/><use transform="matrix(0.05,0,0,0.05,46.85000000000001,0)" xlink:href="#bm"/><use transform="matrix(0.05,0,0,0.05,56.85,0)" xlink:href="#bq"/><use transform="matrix(0.05,0,0,0.05,65.85000000000001,0)" xlink:href="#bu"/><use transform="matrix(0.05,0,0,0.05,69.80000000000001,0)" xlink:href="#bP"/><use transform="matrix(0.05,0,0,0.05,79.80000000000001,0)" xlink:href="#bs"/></g><g id="M"><use transform="matrix(0.05,0,0,0.05,0,0)" xlink:href="#bj"/><use transform="matrix(0.05,0,0,0.05,10,0)" xlink:href="#bm"/><use transform="matrix(0.05,0,0,0.05,20,0)" xlink:href="#bl"/><use transform="matrix(0.05,0,0,0.05,25.950000000000003,0)" xlink:href="#bm"/></g><g id="N"><use transform="matrix(0.05,0,0,0.05,0,0)" xlink:href="#bu"/><use transform="matrix(0.05,0,0,0.05,3.95,0)" xlink:href="#bs"/><use transform="matrix(0.05,0,0,0.05,13.949999999999998,0)" xlink:href="#bu"/><use transform="matrix(0.05,0,0,0.05,17.9,0)" xlink:href="#bq"/><use transform="matrix(0.05,0,0,0.05,26.899999999999995,0)" xlink:href="#bu"/><use transform="matrix(0.05,0,0,0.05,30.849999999999994,0)" xlink:href="#bm"/><use transform="matrix(0.05,0,0,0.05,40.849999999999994,0)" xlink:href="#bl"/></g><g id="O"><use transform="matrix(0.05,0,0,0.05,0,0)" xlink:href="#bq"/><use transform="matrix(0.05,0,0,0.05,9,0)" xlink:href="#bl"/><use transform="matrix(0.05,0,0,0.05,14.949999999999998,0)" xlink:href="#br"/><use transform="matrix(0.05,0,0,0.05,24.95,0)" xlink:href="#bs"/><use transform="matrix(0.05,0,0,0.05,34.95,0)" xlink:href="#bP"/><use transform="matrix(0.05,0,0,0.05,44.95,0)" xlink:href="#bG"/><use transform="matrix(0.05,0,0,0.05,59.900000000000006,0)" xlink:href="#bk"/><use transform="matrix(0.05,0,0,0.05,69.9,0)" xlink:href="#bt"/><use transform="matrix(0.05,0,0,0.05,74.9,0)" xlink:href="#bl"/><use transform="matrix(0.05,0,0,0.05,80.85000000000001,0)" xlink:href="#br"/><use transform="matrix(0.05,0,0,0.05,90.85000000000001,0)" xlink:href="#bF"/></g><g id="P"><use transform="matrix(0.05,0,0,0.05,0,0)" xlink:href="#bK"/><use transform="matrix(0.05,0,0,0.05,12,0)" xlink:href="#bu"/></g><g id="Q"><use transform="matrix(0.05,0,0,0.05,0,0)" xlink:href="#bk"/><use transform="matrix(0.05,0,0,0.05,10,0)" xlink:href="#bp"/></g><g id="R"><use transform="matrix(0.05,0,0,0.05,0,0)" xlink:href="#bq"/><use transform="matrix(0.05,0,0,0.05,9,0)" xlink:href="#bl"/><use transform="matrix(0.05,0,0,0.05,14.949999999999998,0)" xlink:href="#br"/><use transform="matrix(0.05,0,0,0.05,24.95,0)" xlink:href="#bs"/><use transform="matrix(0.05,0,0,0.05,34.95,0)" xlink:href="#bP"/><use transform="matrix(0.05,0,0,0.05,44.95,0)" xlink:href="#bG"/><use transform="matrix(0.05,0,0,0.05,59.900000000000006,0)" xlink:href="#bk"/><use transform="matrix(0.05,0,0,0.05,69.9,0)" xlink:href="#bt"/><use transform="matrix(0.05,0,0,0.05,74.9,0)" xlink:href="#bl"/><use transform="matrix(0.05,0,0,0.05,80.85000000000001,0)" xlink:href="#br"/></g><g id="S"><use transform="matrix(0.05,0,0,0.05,0,0)" xlink:href="#bs"/><use transform="matrix(0.05,0,0,0.05,10,0)" xlink:href="#br"/></g><path fill="#333" d="M141-36C126-15 110 5 73 4 37 3 15-17 15-53c-1-64 63-63 125-63 3-35-9-54-41-54-24 1-41 7-42 31l-33-3c5-37 33-52 76-52 45 0 72 20 72 64v82c-1 20 7 32 28 27v20c-31 9-61-2-59-35zM48-53c0 20 12 33 32 33 41-3 63-29 60-74-43 2-92-5-92 41zm25-158c8-23 27-35 38-54h36v5l-58 49H73" id="bU"/><g id="T"><use transform="matrix(0.05,0,0,0.05,0,0)" xlink:href="#bk"/><use transform="matrix(0.05,0,0,0.05,10,0)" xlink:href="#bi"/><use transform="matrix(0.05,0,0,0.05,19,0)" xlink:href="#bt"/><use transform="matrix(0.05,0,0,0.05,24,0)" xlink:href="#bU"/></g><g id="U"><use transform="matrix(0.05,0,0,0.05,0,0)" xlink:href="#bk"/><use transform="matrix(0.05,0,0,0.05,10,0)" xlink:href="#bs"/></g><path fill="#333" d="M24-231v-30h32v30H24zM-9 49c24 4 33-6 33-30v-209h32V24c2 40-23 58-65 49V49" id="bV"/><g id="V"><use transform="matrix(0.05,0,0,0.05,0,0)" xlink:href="#bk"/><use transform="matrix(0.05,0,0,0.05,10,0)" xlink:href="#bV"/><use transform="matrix(0.05,0,0,0.05,13.949999999999998,0)" xlink:href="#bk"/><use transform="matrix(0.05,0,0,0.05,23.95,0)" xlink:href="#bq"/><use transform="matrix(0.05,0,0,0.05,32.95,0)" xlink:href="#bo"/><use transform="matrix(0.05,0,0,0.05,42.95,0)" xlink:href="#bq"/><use transform="matrix(0.05,0,0,0.05,51.95,0)" xlink:href="#bu"/><use transform="matrix(0.05,0,0,0.05,55.900000000000006,0)" xlink:href="#bP"/><use transform="matrix(0.05,0,0,0.05,65.9,0)" xlink:href="#bs"/></g><use transform="matrix(0.05,0,0,0.05,0,0)" xlink:href="#bL" id="W"/><g id="X"><use transform="matrix(0.05,0,0,0.05,0,0)" xlink:href="#bQ"/><use transform="matrix(0.05,0,0,0.05,10,0)" xlink:href="#bm"/></g><g id="Y"><use transform="matrix(0.05,0,0,0.05,0,0)" xlink:href="#bi"/><use transform="matrix(0.05,0,0,0.05,9,0)" xlink:href="#bu"/><use transform="matrix(0.05,0,0,0.05,12.949999999999998,0)" xlink:href="#bv"/><use transform="matrix(0.05,0,0,0.05,22.95,0)" xlink:href="#br"/></g><g id="Z"><use transform="matrix(0.05,0,0,0.05,0,0)" xlink:href="#bl"/><use transform="matrix(0.05,0,0,0.05,5.95,0)" xlink:href="#bk"/><use transform="matrix(0.05,0,0,0.05,15.949999999999998,0)" xlink:href="#bu"/><use transform="matrix(0.05,0,0,0.05,19.9,0)" xlink:href="#bs"/><use transform="matrix(0.05,0,0,0.05,29.899999999999995,0)" xlink:href="#bu"/><use transform="matrix(0.05,0,0,0.05,33.85,0)" xlink:href="#bq"/><use transform="matrix(0.05,0,0,0.05,42.85,0)" xlink:href="#bu"/><use transform="matrix(0.05,0,0,0.05,46.800000000000004,0)" xlink:href="#bm"/><use transform="matrix(0.05,0,0,0.05,56.800000000000004,0)" xlink:href="#bv"/><use transform="matrix(0.05,0,0,0.05,66.80000000000001,0)" xlink:href="#br"/></g><g id="aa"><use transform="matrix(0.05,0,0,0.05,0,0)" xlink:href="#bh"/><use transform="matrix(0.05,0,0,0.05,12,0)" xlink:href="#bi"/></g><g id="ab"><use transform="matrix(0.05,0,0,0.05,0,0)" xlink:href="#bv"/><use transform="matrix(0.05,0,0,0.05,10,0)" xlink:href="#bk"/></g><g id="ac"><use transform="matrix(0.05,0,0,0.05,0,0)" xlink:href="#bs"/><use transform="matrix(0.05,0,0,0.05,10,0)" xlink:href="#bu"/><use transform="matrix(0.05,0,0,0.05,13.949999999999998,0)" xlink:href="#bD"/><use transform="matrix(0.05,0,0,0.05,22.95,0)" xlink:href="#bk"/><use transform="matrix(0.05,0,0,0.05,32.95,0)" xlink:href="#bp"/></g><path fill="#333" d="M126-127c33 6 58 20 58 59 0 88-139 92-164 29-3-8-5-16-6-25l32-3c6 27 21 44 54 44 32 0 52-15 52-46 0-38-36-46-79-43v-28c39 1 72-4 72-42 0-27-17-43-46-43-28 0-47 15-49 41l-32-3c6-42 35-63 81-64 48-1 79 21 79 65 0 36-21 52-52 59" id="bW"/><use transform="matrix(0.05,0,0,0.05,0,0)" xlink:href="#bW" id="ad"/><g id="ae"><use transform="matrix(0.05,0,0,0.05,0,0)" xlink:href="#bj"/><use transform="matrix(0.05,0,0,0.05,10,0)" xlink:href="#bl"/><use transform="matrix(0.05,0,0,0.05,15.949999999999998,0)" xlink:href="#bu"/><use transform="matrix(0.05,0,0,0.05,19.9,0)" xlink:href="#bG"/><use transform="matrix(0.05,0,0,0.05,34.85,0)" xlink:href="#bk"/><use transform="matrix(0.05,0,0,0.05,44.85,0)" xlink:href="#bl"/></g><g id="af"><use transform="matrix(0.05,0,0,0.05,0,0)" xlink:href="#bL"/><use transform="matrix(0.05,0,0,0.05,9,0)" xlink:href="#bm"/></g><path fill="#333" d="M101-234c-31-9-42 10-38 44h38v23H63V0H32v-167H5v-23h27c-7-52 17-82 69-68v24" id="bX"/><g id="ag"><use transform="matrix(0.05,0,0,0.05,0,0)" xlink:href="#bX"/><use transform="matrix(0.05,0,0,0.05,5,0)" xlink:href="#bu"/><use transform="matrix(0.05,0,0,0.05,8.95,0)" xlink:href="#bs"/><use transform="matrix(0.05,0,0,0.05,18.95,0)" xlink:href="#bm"/><use transform="matrix(0.05,0,0,0.05,28.950000000000003,0)" xlink:href="#bp"/><use transform="matrix(0.05,0,0,0.05,32.9,0)" xlink:href="#bu"/><use transform="matrix(0.05,0,0,0.05,36.85,0)" xlink:href="#bC"/><use transform="matrix(0.05,0,0,0.05,45.85,0)" xlink:href="#bm"/><use transform="matrix(0.05,0,0,0.05,55.85,0)" xlink:href="#bv"/><use transform="matrix(0.05,0,0,0.05,65.85,0)" xlink:href="#br"/></g><g id="ah"><use transform="matrix(0.05,0,0,0.05,0,0)" xlink:href="#bB"/><use transform="matrix(0.05,0,0,0.05,5,0)" xlink:href="#bs"/><use transform="matrix(0.05,0,0,0.05,15,0)" xlink:href="#bu"/><use transform="matrix(0.05,0,0,0.05,18.95,0)" xlink:href="#bq"/><use transform="matrix(0.05,0,0,0.05,27.950000000000003,0)" xlink:href="#bu"/><use transform="matrix(0.05,0,0,0.05,31.899999999999995,0)" xlink:href="#bm"/><use transform="matrix(0.05,0,0,0.05,41.9,0)" xlink:href="#bl"/></g><g id="ai"><use transform="matrix(0.05,0,0,0.05,0,0)" xlink:href="#bi"/><use transform="matrix(0.05,0,0,0.05,9,0)" xlink:href="#bk"/><use transform="matrix(0.05,0,0,0.05,19,0)" xlink:href="#bA"/><use transform="matrix(0.05,0,0,0.05,29,0)" xlink:href="#bo"/><use transform="matrix(0.05,0,0,0.05,39,0)" xlink:href="#bs"/><use transform="matrix(0.05,0,0,0.05,49,0)" xlink:href="#bv"/><use transform="matrix(0.05,0,0,0.05,59,0)" xlink:href="#br"/></g><g id="aj"><use transform="matrix(0.05,0,0,0.05,0,0)" xlink:href="#bq"/><use transform="matrix(0.05,0,0,0.05,9,0)" xlink:href="#bl"/><use transform="matrix(0.05,0,0,0.05,14.949999999999998,0)" xlink:href="#br"/><use transform="matrix(0.05,0,0,0.05,24.95,0)" xlink:href="#bs"/><use transform="matrix(0.05,0,0,0.05,34.95,0)" xlink:href="#bP"/><use transform="matrix(0.05,0,0,0.05,44.95,0)" xlink:href="#bG"/><use transform="matrix(0.05,0,0,0.05,59.900000000000006,0)" xlink:href="#bk"/><use transform="matrix(0.05,0,0,0.05,69.9,0)" xlink:href="#bt"/><use transform="matrix(0.05,0,0,0.05,74.9,0)" xlink:href="#bl"/><use transform="matrix(0.05,0,0,0.05,80.85000000000001,0)" xlink:href="#br"/></g><g id="ak"><use transform="matrix(0.05,0,0,0.05,0,0)" xlink:href="#bS"/><use transform="matrix(0.05,0,0,0.05,12,0)" xlink:href="#bq"/><use transform="matrix(0.05,0,0,0.05,21,0)" xlink:href="#bt"/><use transform="matrix(0.05,0,0,0.05,26,0)" xlink:href="#bo"/><use transform="matrix(0.05,0,0,0.05,36,0)" xlink:href="#bm"/><use transform="matrix(0.05,0,0,0.05,46,0)" xlink:href="#bp"/><use transform="matrix(0.05,0,0,0.05,49.95,0)" xlink:href="#bu"/><use transform="matrix(0.05,0,0,0.05,53.900000000000006,0)" xlink:href="#bC"/><use transform="matrix(0.05,0,0,0.05,62.900000000000006,0)" xlink:href="#bm"/><use transform="matrix(0.05,0,0,0.05,72.9,0)" xlink:href="#bl"/></g><g id="al"><use transform="matrix(0.05,0,0,0.05,0,0)" xlink:href="#bp"/><use transform="matrix(0.05,0,0,0.05,3.95,0)" xlink:href="#br"/><use transform="matrix(0.05,0,0,0.05,13.949999999999998,0)" xlink:href="#bi"/></g><g id="am"><use transform="matrix(0.05,0,0,0.05,0,0)" xlink:href="#bm"/><use transform="matrix(0.05,0,0,0.05,10,0)" xlink:href="#bp"/><use transform="matrix(0.05,0,0,0.05,13.949999999999998,0)" xlink:href="#bt"/><use transform="matrix(0.05,0,0,0.05,18.95,0)" xlink:href="#bk"/><use transform="matrix(0.05,0,0,0.05,28.950000000000003,0)" xlink:href="#bl"/><use transform="matrix(0.05,0,0,0.05,34.9,0)" xlink:href="#bs"/><use transform="matrix(0.05,0,0,0.05,44.9,0)" xlink:href="#bm"/><use transform="matrix(0.05,0,0,0.05,54.900000000000006,0)" xlink:href="#bl"/></g><g id="an"><use transform="matrix(0.05,0,0,0.05,0,0)" xlink:href="#bv"/><use transform="matrix(0.05,0,0,0.05,10,0)" xlink:href="#bk"/><use transform="matrix(0.05,0,0,0.05,20,0)" xlink:href="#bt"/><use transform="matrix(0.05,0,0,0.05,25,0)" xlink:href="#bk"/><use transform="matrix(0.05,0,0,0.05,35,0)" xlink:href="#bs"/><use transform="matrix(0.05,0,0,0.05,45,0)" xlink:href="#bk"/><use transform="matrix(0.05,0,0,0.05,55,0)" xlink:href="#bl"/></g><g id="ao"><use transform="matrix(0.05,0,0,0.05,0,0)" xlink:href="#bw"/><use transform="matrix(0.05,0,0,0.05,12.950000000000001,0)" xlink:href="#bk"/><use transform="matrix(0.05,0,0,0.05,22.950000000000003,0)" xlink:href="#bt"/><use transform="matrix(0.05,0,0,0.05,27.950000000000003,0)" xlink:href="#bk"/><use transform="matrix(0.05,0,0,0.05,37.95,0)" xlink:href="#bs"/><use transform="matrix(0.05,0,0,0.05,47.95,0)" xlink:href="#bk"/><use transform="matrix(0.05,0,0,0.05,57.95,0)" xlink:href="#bl"/></g><g id="ap"><use transform="matrix(0.05,0,0,0.05,0,0)" xlink:href="#bq"/><use transform="matrix(0.05,0,0,0.05,9,0)" xlink:href="#bl"/><use transform="matrix(0.05,0,0,0.05,14.949999999999998,0)" xlink:href="#br"/><use transform="matrix(0.05,0,0,0.05,24.95,0)" xlink:href="#bs"/><use transform="matrix(0.05,0,0,0.05,34.95,0)" xlink:href="#bP"/><use transform="matrix(0.05,0,0,0.05,44.95,0)" xlink:href="#bG"/><use transform="matrix(0.05,0,0,0.05,59.900000000000006,0)" xlink:href="#bk"/><use transform="matrix(0.05,0,0,0.05,69.9,0)" xlink:href="#bt"/><use transform="matrix(0.05,0,0,0.05,74.9,0)" xlink:href="#bl"/><use transform="matrix(0.05,0,0,0.05,80.85000000000001,0)" xlink:href="#br"/><use transform="matrix(0.05,0,0,0.05,90.85000000000001,0)" xlink:href="#bi"/></g><g id="aq"><use transform="matrix(0.05,0,0,0.05,0,0)" xlink:href="#bm"/><use transform="matrix(0.05,0,0,0.05,10,0)" xlink:href="#bq"/><use transform="matrix(0.05,0,0,0.05,19,0)" xlink:href="#bt"/><use transform="matrix(0.05,0,0,0.05,24,0)" xlink:href="#bo"/><use transform="matrix(0.05,0,0,0.05,34,0)" xlink:href="#bm"/><use transform="matrix(0.05,0,0,0.05,44,0)" xlink:href="#bp"/><use transform="matrix(0.05,0,0,0.05,47.95,0)" xlink:href="#bu"/><use transform="matrix(0.05,0,0,0.05,51.900000000000006,0)" xlink:href="#bC"/><use transform="matrix(0.05,0,0,0.05,60.900000000000006,0)" xlink:href="#bm"/><use transform="matrix(0.05,0,0,0.05,70.9,0)" xlink:href="#bl"/></g><g id="ar"><use transform="matrix(0.05,0,0,0.05,0,0)" xlink:href="#bt"/><use transform="matrix(0.05,0,0,0.05,5,0)" xlink:href="#bu"/><use transform="matrix(0.05,0,0,0.05,8.95,0)" xlink:href="#bk"/><use transform="matrix(0.05,0,0,0.05,18.95,0)" xlink:href="#bG"/><use transform="matrix(0.05,0,0,0.05,33.9,0)" xlink:href="#bj"/><use transform="matrix(0.05,0,0,0.05,43.9,0)" xlink:href="#br"/></g><g id="as"><use transform="matrix(0.05,0,0,0.05,0,0)" xlink:href="#bt"/><use transform="matrix(0.05,0,0,0.05,5,0)" xlink:href="#bl"/><use transform="matrix(0.05,0,0,0.05,10.95,0)" xlink:href="#bm"/><use transform="matrix(0.05,0,0,0.05,20.95,0)" xlink:href="#bs"/><use transform="matrix(0.05,0,0,0.05,30.950000000000003,0)" xlink:href="#bi"/><use transform="matrix(0.05,0,0,0.05,39.95,0)" xlink:href="#bq"/><use transform="matrix(0.05,0,0,0.05,48.95,0)" xlink:href="#bo"/><use transform="matrix(0.05,0,0,0.05,58.95,0)" xlink:href="#bl"/><use transform="matrix(0.05,0,0,0.05,64.9,0)" xlink:href="#bl"/><use transform="matrix(0.05,0,0,0.05,70.85000000000001,0)" xlink:href="#bu"/><use transform="matrix(0.05,0,0,0.05,74.80000000000001,0)" xlink:href="#bv"/><use transform="matrix(0.05,0,0,0.05,84.80000000000001,0)" xlink:href="#br"/><use transform="matrix(0.05,0,0,0.05,94.80000000000001,0)" xlink:href="#bH"/></g><g id="at"><use transform="matrix(0.05,0,0,0.05,0,0)" xlink:href="#bm"/><use transform="matrix(0.05,0,0,0.05,10,0)" xlink:href="#bq"/><use transform="matrix(0.05,0,0,0.05,19,0)" xlink:href="#bt"/><use transform="matrix(0.05,0,0,0.05,24,0)" xlink:href="#bo"/><use transform="matrix(0.05,0,0,0.05,34,0)" xlink:href="#bm"/><use transform="matrix(0.05,0,0,0.05,44,0)" xlink:href="#bp"/><use transform="matrix(0.05,0,0,0.05,47.95,0)" xlink:href="#bu"/><use transform="matrix(0.05,0,0,0.05,51.900000000000006,0)" xlink:href="#bC"/><use transform="matrix(0.05,0,0,0.05,60.900000000000006,0)" xlink:href="#bm"/><use transform="matrix(0.05,0,0,0.05,70.9,0)" xlink:href="#bl"/></g><g id="au"><use transform="matrix(0.05,0,0,0.05,0,0)" xlink:href="#bE"/><use transform="matrix(0.05,0,0,0.05,10,0)" xlink:href="#br"/><use transform="matrix(0.05,0,0,0.05,20,0)" xlink:href="#bt"/><use transform="matrix(0.05,0,0,0.05,25,0)" xlink:href="#br"/><use transform="matrix(0.05,0,0,0.05,35,0)" xlink:href="#bs"/><use transform="matrix(0.05,0,0,0.05,45,0)" xlink:href="#bk"/><use transform="matrix(0.05,0,0,0.05,55,0)" xlink:href="#bi"/></g><g id="av"><use transform="matrix(0.05,0,0,0.05,0,0)" xlink:href="#bl"/><use transform="matrix(0.05,0,0,0.05,5.95,0)" xlink:href="#bk"/><use transform="matrix(0.05,0,0,0.05,15.949999999999998,0)" xlink:href="#bu"/><use transform="matrix(0.05,0,0,0.05,19.9,0)" xlink:href="#bs"/><use transform="matrix(0.05,0,0,0.05,29.899999999999995,0)" xlink:href="#bu"/><use transform="matrix(0.05,0,0,0.05,33.85,0)" xlink:href="#bq"/><use transform="matrix(0.05,0,0,0.05,42.85,0)" xlink:href="#bu"/><use transform="matrix(0.05,0,0,0.05,46.800000000000004,0)" xlink:href="#bm"/><use transform="matrix(0.05,0,0,0.05,56.800000000000004,0)" xlink:href="#bl"/></g><g id="aw"><use transform="matrix(0.05,0,0,0.05,0,0)" xlink:href="#bk"/><use transform="matrix(0.05,0,0,0.05,10,0)" xlink:href="#bV"/><use transform="matrix(0.05,0,0,0.05,13.949999999999998,0)" xlink:href="#bk"/><use transform="matrix(0.05,0,0,0.05,23.95,0)" xlink:href="#bq"/><use transform="matrix(0.05,0,0,0.05,32.95,0)" xlink:href="#bo"/><use transform="matrix(0.05,0,0,0.05,42.95,0)" xlink:href="#bq"/><use transform="matrix(0.05,0,0,0.05,51.95,0)" xlink:href="#bu"/><use transform="matrix(0.05,0,0,0.05,55.900000000000006,0)" xlink:href="#bP"/><use transform="matrix(0.05,0,0,0.05,65.9,0)" xlink:href="#bs"/></g><path fill="#333" d="M233-177c-1 41-23 64-60 70L243 0h-38l-65-103H63V0H30v-248c88 3 205-21 203 71zM63-129c60-2 137 13 137-47 0-61-80-42-137-45v92" id="bY"/><g id="ax"><use transform="matrix(0.05,0,0,0.05,0,0)" xlink:href="#bY"/><use transform="matrix(0.05,0,0,0.05,12.950000000000001,0)" xlink:href="#bk"/><use transform="matrix(0.05,0,0,0.05,22.950000000000003,0)" xlink:href="#bu"/><use transform="matrix(0.05,0,0,0.05,26.900000000000002,0)" xlink:href="#bs"/><use transform="matrix(0.05,0,0,0.05,36.900000000000006,0)" xlink:href="#bu"/><use transform="matrix(0.05,0,0,0.05,40.85000000000001,0)" xlink:href="#bq"/><use transform="matrix(0.05,0,0,0.05,49.85000000000001,0)" xlink:href="#bu"/><use transform="matrix(0.05,0,0,0.05,53.80000000000001,0)" xlink:href="#bm"/><use transform="matrix(0.05,0,0,0.05,63.80000000000001,0)" xlink:href="#bl"/></g><g id="ay"><use transform="matrix(0.05,0,0,0.05,0,0)" xlink:href="#bt"/><use transform="matrix(0.05,0,0,0.05,5,0)" xlink:href="#bu"/><use transform="matrix(0.05,0,0,0.05,8.95,0)" xlink:href="#bk"/><use transform="matrix(0.05,0,0,0.05,18.95,0)" xlink:href="#bG"/><use transform="matrix(0.05,0,0,0.05,33.9,0)" xlink:href="#bj"/><use transform="matrix(0.05,0,0,0.05,43.9,0)" xlink:href="#br"/></g><g id="az"><use transform="matrix(0.05,0,0,0.05,0,0)" xlink:href="#bt"/><use transform="matrix(0.05,0,0,0.05,5,0)" xlink:href="#bl"/><use transform="matrix(0.05,0,0,0.05,10.95,0)" xlink:href="#bm"/><use transform="matrix(0.05,0,0,0.05,20.95,0)" xlink:href="#bs"/><use transform="matrix(0.05,0,0,0.05,30.950000000000003,0)" xlink:href="#bi"/><use transform="matrix(0.05,0,0,0.05,39.95,0)" xlink:href="#bq"/><use transform="matrix(0.05,0,0,0.05,48.95,0)" xlink:href="#bo"/><use transform="matrix(0.05,0,0,0.05,58.95,0)" xlink:href="#bl"/><use transform="matrix(0.05,0,0,0.05,64.9,0)" xlink:href="#bl"/><use transform="matrix(0.05,0,0,0.05,70.85000000000001,0)" xlink:href="#bu"/><use transform="matrix(0.05,0,0,0.05,74.80000000000001,0)" xlink:href="#bv"/><use transform="matrix(0.05,0,0,0.05,84.80000000000001,0)" xlink:href="#br"/></g><g id="aA"><use transform="matrix(0.05,0,0,0.05,0,0)" xlink:href="#bD"/><use transform="matrix(0.05,0,0,0.05,9,0)" xlink:href="#bm"/><use transform="matrix(0.05,0,0,0.05,19,0)" xlink:href="#bp"/><use transform="matrix(0.05,0,0,0.05,22.95,0)" xlink:href="#br"/><use transform="matrix(0.05,0,0,0.05,32.95,0)" xlink:href="#bl"/><use transform="matrix(0.05,0,0,0.05,38.900000000000006,0)" xlink:href="#bk"/><use transform="matrix(0.05,0,0,0.05,48.900000000000006,0)" xlink:href="#bi"/></g><path fill="#333" d="M33 0v-38h34V0H33" id="bZ"/><g id="aB"><use transform="matrix(0.05,0,0,0.05,0,0)" xlink:href="#bj"/><use transform="matrix(0.05,0,0,0.05,10,0)" xlink:href="#bk"/><use transform="matrix(0.05,0,0,0.05,20,0)" xlink:href="#bs"/><use transform="matrix(0.05,0,0,0.05,30,0)" xlink:href="#bm"/><use transform="matrix(0.05,0,0,0.05,40,0)" xlink:href="#bp"/><use transform="matrix(0.05,0,0,0.05,43.95,0)" xlink:href="#bu"/><use transform="matrix(0.05,0,0,0.05,47.900000000000006,0)" xlink:href="#bC"/><use transform="matrix(0.05,0,0,0.05,56.900000000000006,0)" xlink:href="#bm"/><use transform="matrix(0.05,0,0,0.05,66.9,0)" xlink:href="#bq"/><use transform="matrix(0.05,0,0,0.05,75.9,0)" xlink:href="#bu"/><use transform="matrix(0.05,0,0,0.05,79.85000000000001,0)" xlink:href="#bP"/><use transform="matrix(0.05,0,0,0.05,89.85000000000001,0)" xlink:href="#bs"/><use transform="matrix(0.05,0,0,0.05,99.85000000000001,0)" xlink:href="#bZ"/></g><g id="aC"><use transform="matrix(0.05,0,0,0.05,0,0)" xlink:href="#bS"/><use transform="matrix(0.05,0,0,0.05,12,0)" xlink:href="#bq"/><use transform="matrix(0.05,0,0,0.05,21,0)" xlink:href="#bt"/><use transform="matrix(0.05,0,0,0.05,26,0)" xlink:href="#bo"/><use transform="matrix(0.05,0,0,0.05,36,0)" xlink:href="#bm"/><use transform="matrix(0.05,0,0,0.05,46,0)" xlink:href="#bp"/><use transform="matrix(0.05,0,0,0.05,49.95,0)" xlink:href="#bu"/><use transform="matrix(0.05,0,0,0.05,53.900000000000006,0)" xlink:href="#bC"/><use transform="matrix(0.05,0,0,0.05,62.900000000000006,0)" xlink:href="#bm"/><use transform="matrix(0.05,0,0,0.05,72.9,0)" xlink:href="#bl"/></g><g id="aD"><use transform="matrix(0.05,0,0,0.05,0,0)" xlink:href="#bp"/><use transform="matrix(0.05,0,0,0.05,3.95,0)" xlink:href="#bm"/></g><g id="aE"><use transform="matrix(0.05,0,0,0.05,0,0)" xlink:href="#bD"/><use transform="matrix(0.05,0,0,0.05,9,0)" xlink:href="#bu"/><use transform="matrix(0.05,0,0,0.05,12.949999999999998,0)" xlink:href="#bi"/><use transform="matrix(0.05,0,0,0.05,21.95,0)" xlink:href="#bo"/><use transform="matrix(0.05,0,0,0.05,31.950000000000003,0)" xlink:href="#bm"/><use transform="matrix(0.05,0,0,0.05,41.95,0)" xlink:href="#bp"/><use transform="matrix(0.05,0,0,0.05,45.900000000000006,0)" xlink:href="#bu"/><use transform="matrix(0.05,0,0,0.05,49.85000000000001,0)" xlink:href="#bC"/><use transform="matrix(0.05,0,0,0.05,58.85,0)" xlink:href="#bm"/><use transform="matrix(0.05,0,0,0.05,68.85000000000001,0)" xlink:href="#bq"/><use transform="matrix(0.05,0,0,0.05,77.85000000000001,0)" xlink:href="#bu"/><use transform="matrix(0.05,0,0,0.05,81.80000000000001,0)" xlink:href="#bP"/><use transform="matrix(0.05,0,0,0.05,91.80000000000001,0)" xlink:href="#bs"/></g><g id="aF"><use transform="matrix(0.05,0,0,0.05,0,0)" xlink:href="#bv"/><use transform="matrix(0.05,0,0,0.05,10,0)" xlink:href="#bk"/><use transform="matrix(0.05,0,0,0.05,20,0)" xlink:href="#bp"/></g><g id="aG"><use transform="matrix(0.05,0,0,0.05,0,0)" xlink:href="#bp"/><use transform="matrix(0.05,0,0,0.05,3.95,0)" xlink:href="#br"/><use transform="matrix(0.05,0,0,0.05,13.949999999999998,0)" xlink:href="#bi"/></g><g id="aH"><use transform="matrix(0.05,0,0,0.05,0,0)" xlink:href="#bk"/><use transform="matrix(0.05,0,0,0.05,10,0)" xlink:href="#bi"/><use transform="matrix(0.05,0,0,0.05,19,0)" xlink:href="#bt"/><use transform="matrix(0.05,0,0,0.05,24,0)" xlink:href="#bU"/></g><g id="aI"><use transform="matrix(0.05,0,0,0.05,0,0)" xlink:href="#bk"/><use transform="matrix(0.05,0,0,0.05,10,0)" xlink:href="#bs"/></g><g id="aJ"><use transform="matrix(0.05,0,0,0.05,0,0)" xlink:href="#bk"/><use transform="matrix(0.05,0,0,0.05,10,0)" xlink:href="#bV"/><use transform="matrix(0.05,0,0,0.05,13.949999999999998,0)" xlink:href="#bk"/><use transform="matrix(0.05,0,0,0.05,23.95,0)" xlink:href="#bq"/><use transform="matrix(0.05,0,0,0.05,32.95,0)" xlink:href="#bo"/><use transform="matrix(0.05,0,0,0.05,42.95,0)" xlink:href="#bq"/><use transform="matrix(0.05,0,0,0.05,51.95,0)" xlink:href="#bu"/><use transform="matrix(0.05,0,0,0.05,55.900000000000006,0)" xlink:href="#bP"/><use transform="matrix(0.05,0,0,0.05,65.9,0)" xlink:href="#bs"/><use transform="matrix(0.05,0,0,0.05,75.9,0)" xlink:href="#bZ"/></g><path fill="#333" d="M212-179c-10-28-35-45-73-45-59 0-87 40-87 99 0 60 29 101 89 101 43 0 62-24 78-52l27 14C228-24 195 4 139 4 59 4 22-46 18-125c-6-104 99-153 187-111 19 9 31 26 39 46" id="ca"/><g id="aK"><use transform="matrix(0.05,0,0,0.05,0,0)" xlink:href="#ca"/><use transform="matrix(0.05,0,0,0.05,12.950000000000001,0)" xlink:href="#bm"/><use transform="matrix(0.05,0,0,0.05,22.950000000000003,0)" xlink:href="#bp"/><use transform="matrix(0.05,0,0,0.05,26.900000000000002,0)" xlink:href="#bq"/><use transform="matrix(0.05,0,0,0.05,35.900000000000006,0)" xlink:href="#bo"/><use transform="matrix(0.05,0,0,0.05,45.900000000000006,0)" xlink:href="#bp"/><use transform="matrix(0.05,0,0,0.05,49.85000000000001,0)" xlink:href="#bm"/><use transform="matrix(0.05,0,0,0.05,59.85,0)" xlink:href="#bl"/></g><g id="aL"><use transform="matrix(0.05,0,0,0.05,0,0)" xlink:href="#bD"/><use transform="matrix(0.05,0,0,0.05,9,0)" xlink:href="#bu"/><use transform="matrix(0.05,0,0,0.05,12.949999999999998,0)" xlink:href="#bi"/><use transform="matrix(0.05,0,0,0.05,21.95,0)" xlink:href="#bo"/><use transform="matrix(0.05,0,0,0.05,31.950000000000003,0)" xlink:href="#bm"/><use transform="matrix(0.05,0,0,0.05,41.95,0)" xlink:href="#bp"/><use transform="matrix(0.05,0,0,0.05,45.900000000000006,0)" xlink:href="#bu"/><use transform="matrix(0.05,0,0,0.05,49.85000000000001,0)" xlink:href="#bC"/><use transform="matrix(0.05,0,0,0.05,58.85,0)" xlink:href="#bm"/><use transform="matrix(0.05,0,0,0.05,68.85000000000001,0)" xlink:href="#bq"/><use transform="matrix(0.05,0,0,0.05,77.85000000000001,0)" xlink:href="#bu"/><use transform="matrix(0.05,0,0,0.05,81.80000000000001,0)" xlink:href="#bP"/><use transform="matrix(0.05,0,0,0.05,91.80000000000001,0)" xlink:href="#bs"/></g><g id="aM"><use transform="matrix(0.05,0,0,0.05,0,0)" xlink:href="#bi"/><use transform="matrix(0.05,0,0,0.05,9,0)" xlink:href="#bk"/><use transform="matrix(0.05,0,0,0.05,19,0)" xlink:href="#bA"/><use transform="matrix(0.05,0,0,0.05,29,0)" xlink:href="#bo"/><use transform="matrix(0.05,0,0,0.05,39,0)" xlink:href="#bs"/><use transform="matrix(0.05,0,0,0.05,49,0)" xlink:href="#bv"/><use transform="matrix(0.05,0,0,0.05,59,0)" xlink:href="#br"/></g><path fill="#333" d="M87 75C49 33 22-17 22-94c0-76 28-126 65-167h31c-38 41-64 92-64 168S80 34 118 75H87" id="cb"/><g id="aN"><use transform="matrix(0.05,0,0,0.05,0,0)" xlink:href="#cb"/><use transform="matrix(0.05,0,0,0.05,5.95,0)" xlink:href="#bi"/><use transform="matrix(0.05,0,0,0.05,14.949999999999998,0)" xlink:href="#br"/><use transform="matrix(0.05,0,0,0.05,24.95,0)" xlink:href="#bp"/><use transform="matrix(0.05,0,0,0.05,28.899999999999995,0)" xlink:href="#br"/></g><path fill="#333" d="M33-261c38 41 65 92 65 168S71 34 33 75H2C39 34 66-17 66-93S39-220 2-261h31" id="cc"/><g id="aO"><use transform="matrix(0.05,0,0,0.05,0,0)" xlink:href="#bW"/><use transform="matrix(0.05,0,0,0.05,10,0)" xlink:href="#cc"/></g><g id="aP"><use transform="matrix(0.05,0,0,0.05,0,0)" xlink:href="#ca"/><use transform="matrix(0.05,0,0,0.05,12.950000000000001,0)" xlink:href="#bm"/><use transform="matrix(0.05,0,0,0.05,22.950000000000003,0)" xlink:href="#bp"/><use transform="matrix(0.05,0,0,0.05,26.900000000000002,0)" xlink:href="#bq"/><use transform="matrix(0.05,0,0,0.05,35.900000000000006,0)" xlink:href="#bo"/><use transform="matrix(0.05,0,0,0.05,45.900000000000006,0)" xlink:href="#bp"/><use transform="matrix(0.05,0,0,0.05,49.85000000000001,0)" xlink:href="#bm"/><use transform="matrix(0.05,0,0,0.05,59.85,0)" xlink:href="#bl"/></g><use transform="matrix(0.05,0,0,0.05,0,0)" xlink:href="#bL" id="aQ"/><g id="aR"><use transform="matrix(0.05,0,0,0.05,0,0)" xlink:href="#bX"/><use transform="matrix(0.05,0,0,0.05,5,0)" xlink:href="#br"/><use transform="matrix(0.05,0,0,0.05,15,0)" xlink:href="#bl"/><use transform="matrix(0.05,0,0,0.05,20.95,0)" xlink:href="#bG"/><use transform="matrix(0.05,0,0,0.05,35.9,0)" xlink:href="#bm"/><use transform="matrix(0.05,0,0,0.05,45.9,0)" xlink:href="#bt"/><use transform="matrix(0.05,0,0,0.05,50.9,0)" xlink:href="#bk"/><use transform="matrix(0.05,0,0,0.05,60.900000000000006,0)" xlink:href="#bm"/><use transform="matrix(0.05,0,0,0.05,70.9,0)" xlink:href="#bl"/></g><g id="aS"><use transform="matrix(0.05,0,0,0.05,0,0)" xlink:href="#bt"/><use transform="matrix(0.05,0,0,0.05,5,0)" xlink:href="#bu"/><use transform="matrix(0.05,0,0,0.05,8.95,0)" xlink:href="#bk"/><use transform="matrix(0.05,0,0,0.05,18.95,0)" xlink:href="#bG"/><use transform="matrix(0.05,0,0,0.05,33.9,0)" xlink:href="#bj"/><use transform="matrix(0.05,0,0,0.05,43.9,0)" xlink:href="#br"/><use transform="matrix(0.05,0,0,0.05,53.900000000000006,0)" xlink:href="#bF"/></g><g id="aT"><use transform="matrix(0.05,0,0,0.05,0,0)" xlink:href="#ca"/><use transform="matrix(0.05,0,0,0.05,12.950000000000001,0)" xlink:href="#br"/><use transform="matrix(0.05,0,0,0.05,22.950000000000003,0)" xlink:href="#bs"/><use transform="matrix(0.05,0,0,0.05,32.95,0)" xlink:href="#bD"/><use transform="matrix(0.05,0,0,0.05,41.95,0)" xlink:href="#bk"/><use transform="matrix(0.05,0,0,0.05,51.95,0)" xlink:href="#bl"/><use transform="matrix(0.05,0,0,0.05,57.900000000000006,0)" xlink:href="#bt"/><use transform="matrix(0.05,0,0,0.05,62.900000000000006,0)" xlink:href="#bu"/><use transform="matrix(0.05,0,0,0.05,66.85000000000001,0)" xlink:href="#bl"/></g><g id="aU"><use transform="matrix(0.05,0,0,0.05,0,0)" xlink:href="#bt"/><use transform="matrix(0.05,0,0,0.05,5,0)" xlink:href="#br"/><use transform="matrix(0.05,0,0,0.05,15,0)" xlink:href="#bt"/><use transform="matrix(0.05,0,0,0.05,20,0)" xlink:href="#bm"/><use transform="matrix(0.05,0,0,0.05,30,0)" xlink:href="#bp"/></g><g id="aV"><use transform="matrix(0.05,0,0,0.05,0,0)" xlink:href="#bi"/><use transform="matrix(0.05,0,0,0.05,9,0)" xlink:href="#bk"/><use transform="matrix(0.05,0,0,0.05,19,0)" xlink:href="#bA"/><use transform="matrix(0.05,0,0,0.05,29,0)" xlink:href="#bo"/><use transform="matrix(0.05,0,0,0.05,39,0)" xlink:href="#bs"/><use transform="matrix(0.05,0,0,0.05,49,0)" xlink:href="#bv"/><use transform="matrix(0.05,0,0,0.05,59,0)" xlink:href="#br"/><use transform="matrix(0.05,0,0,0.05,69,0)" xlink:href="#bi"/></g><g id="aW"><use transform="matrix(0.05,0,0,0.05,0,0)" xlink:href="#bG"/><use transform="matrix(0.05,0,0,0.05,14.950000000000001,0)" xlink:href="#bu"/><use transform="matrix(0.05,0,0,0.05,18.900000000000002,0)" xlink:href="#bp"/><use transform="matrix(0.05,0,0,0.05,22.85,0)" xlink:href="#bu"/><use transform="matrix(0.05,0,0,0.05,26.8,0)" xlink:href="#bi"/><use transform="matrix(0.05,0,0,0.05,35.8,0)" xlink:href="#bk"/><use transform="matrix(0.05,0,0,0.05,45.8,0)" xlink:href="#bA"/><use transform="matrix(0.05,0,0,0.05,55.79999999999999,0)" xlink:href="#bo"/><use transform="matrix(0.05,0,0,0.05,65.8,0)" xlink:href="#bs"/><use transform="matrix(0.05,0,0,0.05,75.8,0)" xlink:href="#bv"/><use transform="matrix(0.05,0,0,0.05,85.8,0)" xlink:href="#br"/><use transform="matrix(0.05,0,0,0.05,95.8,0)" xlink:href="#bi"/></g><g id="aX"><use transform="matrix(0.05,0,0,0.05,0,0)" xlink:href="#bq"/><use transform="matrix(0.05,0,0,0.05,9,0)" xlink:href="#br"/><use transform="matrix(0.05,0,0,0.05,19,0)" xlink:href="#bs"/></g><g id="aY"><use transform="matrix(0.05,0,0,0.05,0,0)" xlink:href="#bX"/><use transform="matrix(0.05,0,0,0.05,5,0)" xlink:href="#br"/><use transform="matrix(0.05,0,0,0.05,15,0)" xlink:href="#bl"/><use transform="matrix(0.05,0,0,0.05,20.95,0)" xlink:href="#bG"/><use transform="matrix(0.05,0,0,0.05,35.9,0)" xlink:href="#bm"/><use transform="matrix(0.05,0,0,0.05,45.9,0)" xlink:href="#bt"/><use transform="matrix(0.05,0,0,0.05,50.9,0)" xlink:href="#br"/></g><g id="aZ"><use transform="matrix(0.05,0,0,0.05,0,0)" xlink:href="#bm"/><use transform="matrix(0.05,0,0,0.05,10,0)" xlink:href="#bv"/><use transform="matrix(0.05,0,0,0.05,20,0)" xlink:href="#bk"/><use transform="matrix(0.05,0,0,0.05,30,0)" xlink:href="#bq"/><use transform="matrix(0.05,0,0,0.05,39,0)" xlink:href="#bo"/><use transform="matrix(0.05,0,0,0.05,49,0)" xlink:href="#bm"/><use transform="matrix(0.05,0,0,0.05,59,0)" xlink:href="#bv"/><use transform="matrix(0.05,0,0,0.05,69,0)" xlink:href="#br"/></g><g id="ba"><use transform="matrix(0.05,0,0,0.05,0,0)" xlink:href="#bX"/><use transform="matrix(0.05,0,0,0.05,5,0)" xlink:href="#br"/><use transform="matrix(0.05,0,0,0.05,15,0)" xlink:href="#bl"/><use transform="matrix(0.05,0,0,0.05,20.95,0)" xlink:href="#bG"/><use transform="matrix(0.05,0,0,0.05,35.9,0)" xlink:href="#bm"/><use transform="matrix(0.05,0,0,0.05,45.9,0)" xlink:href="#bt"/><use transform="matrix(0.05,0,0,0.05,50.9,0)" xlink:href="#bk"/><use transform="matrix(0.05,0,0,0.05,60.900000000000006,0)" xlink:href="#bm"/><use transform="matrix(0.05,0,0,0.05,70.9,0)" xlink:href="#bl"/></g><g id="bb"><use transform="matrix(0.05,0,0,0.05,0,0)" xlink:href="#bt"/><use transform="matrix(0.05,0,0,0.05,5,0)" xlink:href="#bu"/><use transform="matrix(0.05,0,0,0.05,8.95,0)" xlink:href="#bk"/><use transform="matrix(0.05,0,0,0.05,18.95,0)" xlink:href="#bG"/><use transform="matrix(0.05,0,0,0.05,33.9,0)" xlink:href="#bj"/><use transform="matrix(0.05,0,0,0.05,43.9,0)" xlink:href="#br"/><use transform="matrix(0.05,0,0,0.05,53.900000000000006,0)" xlink:href="#bF"/></g><path fill="#333" d="M34 0v-190h32V0H34zM24-211c8-23 27-35 38-54h36v5l-58 49H24" id="cd"/><g id="bc"><use transform="matrix(0.05,0,0,0.05,0,0)" xlink:href="#bK"/><use transform="matrix(0.05,0,0,0.05,12,0)" xlink:href="#cd"/></g><path fill="#333" d="M190 0L58-211 59 0H30v-248h39L202-35l-2-213h31V0h-41" id="ce"/><g id="bd"><use transform="matrix(0.05,0,0,0.05,0,0)" xlink:href="#ce"/><use transform="matrix(0.05,0,0,0.05,12.950000000000001,0)" xlink:href="#br"/></g><path fill="#282c33" d="M30 0v-248h187v28H63v79h144v27H63v87h162V0H30" id="cf"/><path fill="#282c33" d="M135-143c-3-34-86-38-87 0 15 53 115 12 119 90S17 21 10-45l28-5c4 36 97 45 98 0-10-56-113-15-118-90-4-57 82-63 122-42 12 7 21 19 24 35" id="cg"/><g id="be"><use transform="matrix(0.05,0,0,0.05,0,0)" xlink:href="#cf"/><use transform="matrix(0.05,0,0,0.05,12,0)" xlink:href="#cg"/></g><path fill="#282c33" d="M117-194c89-4 53 116 60 194h-32v-121c0-31-8-49-39-48C34-167 62-67 57 0H25l-1-190h30c1 10-1 24 2 32 11-22 29-35 61-36" id="ch"/><path fill="#282c33" d="M24-231v-30h32v30H24zM24 0v-190h32V0H24" id="ci"/><path fill="#282c33" d="M108 0H70L1-190h34L89-25l56-165h34" id="cj"/><path fill="#282c33" d="M100-194c63 0 86 42 84 106H49c0 40 14 67 53 68 26 1 43-12 49-29l28 8c-11 28-37 45-77 45C44 4 14-33 15-96c1-61 26-98 85-98zm52 81c6-60-76-77-97-28-3 7-6 17-6 28h103" id="ck"/><path fill="#282c33" d="M24 0v-261h32V0H24" id="cl"/><g id="bf"><use transform="matrix(0.05,0,0,0.05,0,0)" xlink:href="#ch"/><use transform="matrix(0.05,0,0,0.05,10,0)" xlink:href="#ci"/><use transform="matrix(0.05,0,0,0.05,13.949999999999998,0)" xlink:href="#cj"/><use transform="matrix(0.05,0,0,0.05,22.95,0)" xlink:href="#ck"/><use transform="matrix(0.05,0,0,0.05,32.95,0)" xlink:href="#cl"/></g><path fill="#282c33" d="M126-127c33 6 58 20 58 59 0 88-139 92-164 29-3-8-5-16-6-25l32-3c6 27 21 44 54 44 32 0 52-15 52-46 0-38-36-46-79-43v-28c39 1 72-4 72-42 0-27-17-43-46-43-28 0-47 15-49 41l-32-3c6-42 35-63 81-64 48-1 79 21 79 65 0 36-21 52-52 59" id="cm"/><use transform="matrix(0.05,0,0,0.05,0,0)" xlink:href="#cm" id="bg"/></defs></g></svg>